<?xml version="1.0" encoding="utf-8"?>
<!-- Generator: Adobe Illustrator 22.1.0, SVG Export Plug-In . SVG Version: 6.00 Build 0)  -->
<svg version="1.1" id="Layer_1" xmlns="http://www.w3.org/2000/svg" xmlns:xlink="http://www.w3.org/1999/xlink" x="0px" y="0px"
	 >
<g id="_x23_wood_x5F_shelf">
	<path opacity="0.2" fill="#735735" d="M730.8514,420.833h-11.1475c-1.1456,0-2.0208-1.0224-1.8441-2.1543l6.4158-41.0984
		c4.4283-28.3655-17.0828-54.0435-45.285-54.0763c-0.0358-0.0001-0.0719-0.0015-0.1077-0.0043
		c-20.2048-1.5897-40.3871-3.0199-60.5488-4.3044c-0.9817-0.0626-1.7447-0.8759-1.7447-1.8596v-230.5
		c0-1.0308-0.8356-1.8664-1.8663-1.8664h-26.9014c-1.0308,0-1.8663-0.8356-1.8663-1.8664v-0.5201
		c0-1.2072-1.1229-2.0965-2.297-1.8158c-2.4087,0.5758-6.7269,1.519-13.0263,2.5676c-1.1374,0.1893-2.1804-0.6877-2.1804-1.8407
		v-7.545c0-1.2643-1.2241-2.1604-2.4295-1.7788c-6.09,1.9281-25.1946,6.4153-74.3178,8.0115
		c-54.7445,1.7788-98.4051-14.3951-109.1902-18.792c-1.228-0.5006-2.5645,0.4044-2.5645,1.7305v10.8841
		c0,1.2003-1.1236,2.0876-2.2932,1.8176c-7.3268-1.6913-12.6869-3.1048-15.5454-3.8882c-1.1885-0.3257-2.3581,0.568-2.3581,1.8004
		v9.3689c0,1.0308-0.8356,1.8664-1.8664,1.8664h-8.7192c-1.0308,0-1.8664,0.8356-1.8664,1.8664v56.2811
		c0,0.6063-0.3045,1.1618-0.7939,1.5196c-1.3959,1.0206-2.2458,2.6709-2.3065,4.4297c-0.0335,0.9708-0.8886,1.7132-1.86,1.7132
		h-8.8057c-0.8062,0-1.5213-0.5177-1.7731-1.2836l-0.6764-2.058c-0.9727-2.9609-4.0656-4.5425-6.915-3.5286
		c-2.1536,0.767-3.5425,2.7992-3.6687,5.0263c-0.0577,1.0181-0.8325,1.8439-1.8522,1.8439h-6.782
		c-0.8062,0-1.5213-0.5177-1.7731-1.2836l-0.6764-2.058c-0.9727-2.9609-4.0678-4.5425-6.9153-3.5286
		c-2.1534,0.767-3.5423,2.7992-3.6686,5.0263c-0.0577,1.0181-0.8326,1.8439-1.8523,1.8439h-8.8191
		c-0.8062,0-1.5213-0.5177-1.7731-1.2836l-0.6764-2.058c-0.9727-2.9609-4.0676-4.5425-6.915-3.5286
		c-2.1538,0.767-3.5426,2.7992-3.6688,5.0263c-0.0577,1.0181-0.8324,1.8439-1.8521,1.8439h-9.1411
		c-0.8062,0-1.5213-0.5177-1.7731-1.2836l-0.5199-1.5819c-0.9737-2.9609-4.0666-4.5425-6.915-3.5286
		c-2.0348,0.7247-3.3863,2.5788-3.6361,4.6595c-0.1168,0.9727-0.882,1.7346-1.8617,1.7346h-8.9989
		c-0.8062,0-1.5213-0.5177-1.7731-1.2836l-0.5199-1.5819c-0.9737-2.9609-4.0668-4.5425-6.915-3.5286
		c-2.0348,0.7247-3.3865,2.5788-3.6362,4.6595c-0.1167,0.9726-0.882,1.7346-1.8616,1.7346h-6.9617
		c-0.8062,0-1.5213-0.5177-1.7731-1.2836l-0.5199-1.5819c-0.9727-2.9609-4.0656-4.5425-6.915-3.5286
		c-2.0346,0.7247-3.3863,2.5788-3.6361,4.6595c-0.1168,0.9727-0.8821,1.7346-1.8617,1.7346h-8.9989
		c-0.8062,0-1.5213-0.5177-1.7731-1.2836l-0.5199-1.5819c-0.9725-2.9609-4.0656-4.5425-6.915-3.5286
		c-2.0346,0.7247-3.3863,2.5788-3.636,4.6595c-0.1167,0.9726-0.882,1.7346-1.8616,1.7346h-9.4747
		c-0.8063,0-1.5214-0.5178-1.7731-1.2838l-0.5197-1.5818c-0.9727-2.9609-4.0658-4.5425-6.9153-3.5286
		c-2.0346,0.7247-3.3862,2.5788-3.636,4.6595c-0.1167,0.9726-0.882,1.7346-1.8616,1.7346h-8.999
		c-0.8062,0-1.5213-0.5176-1.773-1.2835l-0.5201-1.5821c-0.9725-2.9609-4.0656-4.5425-6.9148-3.5286
		c-2.0348,0.7247-3.3865,2.5788-3.6362,4.6595c-0.1167,0.9726-0.882,1.7346-1.8616,1.7346h-6.9617
		c-0.8062,0-1.5213-0.5177-1.7731-1.2836l-0.5199-1.5819c-0.9727-2.9609-4.0676-4.5425-6.915-3.5286
		c-2.0346,0.7247-3.3863,2.5788-3.6361,4.6595c-0.1168,0.9727-0.8821,1.7346-1.8617,1.7346h-8.9999
		c-0.8062,0-1.5213-0.5177-1.7731-1.2836l-0.5199-1.5819c-0.9727-2.9609-4.0666-4.5425-6.915-3.5286
		c-2.0346,0.7247-3.3863,2.5788-3.6361,4.6595c-0.1168,0.9727-0.8821,1.7346-1.8617,1.7346H86.945
		c-1.0308,0-1.8664,0.8356-1.8664,1.8664v48.3588c0,1.0308-0.8356,1.8664-1.8664,1.8664H66.7483
		c-1.0308,0-1.8664,0.8356-1.8664,1.8664v89.4837c0,1.0308,0.8356,1.8664,1.8664,1.8664h60.8967
		c1.0308,0,1.8664,0.8356,1.8664,1.8664v19.1404c0,0.9826-0.7621,1.7952-1.7426,1.859
		c-20.6398,1.3426-41.2564,2.8506-61.8464,4.5461c-0.038,0.0031-0.0764,0.0047-0.1146,0.0047
		c-29.8651,0.0341-53.0152,26.6019-49.4791,56.8029l4.501,38.4426c0.1299,1.1092-0.7369,2.0834-1.8537,2.0834H3.4655
		c-1.0308,0-1.8664,0.8356-1.8664,1.8664v60.6962c0,1.0308,0.8356,1.8664,1.8664,1.8664h22.7742
		c1.0308,0,1.8664,0.8356,1.8664,1.8664v55.0985c0,1.0308,0.8356,1.8664,1.8664,1.8664h58.7234l0,0v-11.7275
		c0-1.0308,0.8356-1.8663,1.8664-1.8663h273.9456c1.0737,0,1.9275,0.9064,1.8634,1.9783c-0.833,13.939-1.8884,25.1818-2.4738,30.908
		c-0.1625,1.5903,1.6123,2.6359,2.9213,1.7183c7.9988-5.6074,29.6859-20.1482,58.7982-34.412
		c0.2572-0.126,0.5426-0.1926,0.8291-0.1926h211.5006c1.0308,0,1.8664,0.8356,1.8664,1.8663v9.9756
		c0,1.0308,0.8356,1.8664,1.8664,1.8664h58.7234h0.0003v-13.5635c0-0.0964,0.0074-0.1926,0.0223-0.2878l6.7933-43.5158
		c0.1418-0.9086,0.9244-1.5785,1.8441-1.5785h21.7885c1.0308,0,1.8664-0.8356,1.8664-1.8664v-60.6962
		C732.7178,421.6686,731.8821,420.833,730.8514,420.833z M559.6873,84.953c-0.0818,0.0107-0.1666,0.0164-0.2491,0.0164h-35.6196
		l44.6213-1.2787C565.8231,84.1055,562.9096,84.5307,559.6873,84.953z"/>
	<g>
		<g>
			<g>
				<path fill="#B06F4B" d="M36.9232,461.7384c-1.2661,0-2.3325-0.9468-2.4824-2.2041L17.0687,313.7999
					c-1.7505-14.6855,2.877-29.4512,12.6963-40.5107c9.7969-11.0337,23.8682-17.373,38.6206-17.4023
					c98.2354-7.9443,198.9878-11.9717,299.4775-11.9717c100.4868,0,203.564,4.0278,306.3716,11.9717
					c13.9888,0.0283,27.2134,6.1426,36.2974,16.7847c9.1055,10.6665,13.0649,24.728,10.8638,38.5791L697.8124,459.631
					c-0.1929,1.2139-1.2402,2.1074-2.4692,2.1074H36.9232z"/>
				<path fill="#734E31" d="M367.8624,246.4154c101.5083,0,203.6252,4.0376,306.2742,11.9717
					c27.887,0,49.1675,24.9299,44.7901,52.4712l-23.5836,148.3801H36.9233L19.551,313.504
					c-3.4955-29.3235,19.4059-55.1169,48.9369-55.1169C167.7085,250.3605,267.4877,246.4154,367.8624,246.4154 M367.8624,241.4154
					c-100.5205,0-201.3137,4.0278-299.5809,11.9719c-15.4281,0.0591-30.1383,6.7004-40.3859,18.2422
					c-10.2935,11.5933-15.1447,27.0718-13.3094,42.4663l17.3723,145.7344c0.2997,2.5146,2.4324,4.4082,4.9648,4.4082h658.4198
					c2.4584,0,4.5521-1.7871,4.938-4.2151l23.5836-148.3801c2.3165-14.5745-1.85-29.3706-11.431-40.5947
					c-9.5383-11.1741-23.4153-17.604-38.0997-17.6611C571.4938,245.4435,468.3827,241.4154,367.8624,241.4154L367.8624,241.4154z"/>
			</g>
			<g opacity="0.51">
				<path fill="#F9BF80" d="M674.1366,259.3873c-204.1516-15.7793-406.0869-16.1438-605.6487,0
					c-29.531,0-52.4324,25.7936-48.9369,55.1169l17.3723,145.7344h4.6786L25.3824,324.8409
					c-3.4249-28.5903,19.0139-53.739,47.9484-53.739c195.5308-15.7402,393.3872-15.3849,593.4153,0
					c27.3236,0,48.1743,24.3069,43.8853,51.1594l-22.0381,137.9773h6.7498l23.5837-148.3801
					C723.3041,284.3174,702.0236,259.3873,674.1366,259.3873z"/>
			</g>
			<g opacity="0.31">
				
					<path fill="none" stroke="#734E31" stroke-width="2" stroke-linecap="round" stroke-linejoin="round" stroke-miterlimit="10" d="
					M91.8057,281.8857c69.4228,3.5575,139.423-4.4174,206.2665-23.4995c7.798-2.2261,15.9174-4.6255,23.8903-3.1434
					c7.0701,1.3143,13.193,5.5344,19.7005,8.5947c15.3511,7.2193,32.8518,7.9666,49.813,8.2723
					c102.92,1.855,205.9439-7.9305,308.7246-2.2649"/>
				
					<path fill="none" stroke="#734E31" stroke-width="2" stroke-linecap="round" stroke-linejoin="round" stroke-miterlimit="10" d="
					M93.1958,295.009c29.5014-1.383,59.0028-2.7661,88.5042-4.1491c17.4062-0.816,35.0368-1.6153,52.0885,1.9736
					c21.4349,4.5114,41.1411,15.7991,62.8192,18.9405c29.2295,4.2357,58.1944-6.694,86.8684-13.7724
					c50.0355-12.3517,102.0997-13.1329,153.6321-13.8486c31.8161-0.4419,64.1615-0.8178,94.777,7.851"/>
				
					<path fill="none" stroke="#734E31" stroke-width="2" stroke-linecap="round" stroke-linejoin="round" stroke-miterlimit="10" d="
					M95.3859,309.925c37.0064-3.6606,74.439-6.0309,111.2989-1.1087s73.4094,17.5695,102.1303,41.1914
					c-0.5952-0.6883-1.1904-1.3767-1.7856-2.065"/>
				
					<path fill="none" stroke="#734E31" stroke-width="2" stroke-linecap="round" stroke-linejoin="round" stroke-miterlimit="10" d="
					M95.2654,325.9521c34.6876-8.36,71.7904-6.4209,105.4175,5.5095c11.5553,4.0996,22.9848,9.5485,31.4266,18.4406
					c-2.1982-0.3268-4.3965-0.6536-6.5947-0.9804"/>
				
					<path fill="none" stroke="#734E31" stroke-width="2" stroke-linecap="round" stroke-linejoin="round" stroke-miterlimit="10" d="
					M94.487,343.5884c17.5957-7.4268,37.2077-12.1197,55.8017-7.7574c5.2731,1.2371,10.3512,3.1767,15.4106,5.1105
					c4.2643,1.6299,8.5286,3.2599,12.7929,4.8898"/>
				
					<path fill="none" stroke="#734E31" stroke-width="2" stroke-linecap="round" stroke-linejoin="round" stroke-miterlimit="10" d="
					M341.8558,290.3177c5.8461-2.1703,11.4881-5.0226,16.3401-8.9399c-3.7754,3.2737-9.3092,3.7473-14.2034,2.7383
					c-4.8941-1.0091-9.415-3.2941-14.1068-5.014c-9.7677-3.5806-20.4326-4.5813-30.7203-3.1263
					c-5.0895,0.7198-25.5863,4.2209-20.7254,12.1049c3.679,5.967,24.7723,7.0289,30.9658,7.2831
					C320.4113,295.8155,331.5217,294.154,341.8558,290.3177z"/>
				
					<path fill="none" stroke="#734E31" stroke-width="2" stroke-linecap="round" stroke-linejoin="round" stroke-miterlimit="10" d="
					M337.3971,348.9534c-4.3569-2.6584-8.7138-5.3167-13.0708-7.9751c40.1758-20.3173,83.2531-35.4399,127.8547-41.5702
					s90.798-3.0672,133.2678,11.873c16.6155,5.8451,32.6243,13.4715,49.6182,18.1026c13.337,3.6345,27.1869,5.3816,41.0087,5.1731"
					/>
				
					<path fill="none" stroke="#734E31" stroke-width="2" stroke-linecap="round" stroke-linejoin="round" stroke-miterlimit="10" d="
					M365.7129,349.3245c36.0056-20.7776,76.8139-33.6567,118.3539-35.251c41.54-1.5943,83.743,8.3378,119.1933,30.0492
					c2.4589,1.5059,4.884,3.0661,7.3088,4.6262"/>
				
					<path fill="none" stroke="#734E31" stroke-width="2" stroke-linecap="round" stroke-linejoin="round" stroke-miterlimit="10" d="
					M437.9877,350.5708c18.101-7.6821,38.2434-9.5551,57.8651-8.2703c19.6216,1.2849,38.9014,5.6086,58.0869,9.9185"/>
				
					<path fill="none" stroke="#734E31" stroke-width="2" stroke-linecap="round" stroke-linejoin="round" stroke-miterlimit="10" d="
					M364.3994,248.0575c10.2849,10.2642,25.702,13.2424,40.2044,14.1446c32.2463,2.006,64.4791-3.7838,95.8827-11.3771
					c0.7664-0.1853,1.7033-0.5735,1.7098-1.362c0.0065-0.7884-1.6652-0.4371-1.0884,0.1005"/>
				
					<path fill="none" stroke="#734E31" stroke-width="2" stroke-linecap="round" stroke-linejoin="round" stroke-miterlimit="10" d="
					M100.7728,258.6525c18.8058,12.6605,42.9828,15.2112,65.3874,11.7496c22.4046-3.4615,43.5373-12.4075,64.4014-21.2753"/>
				
					<path fill="none" stroke="#734E31" stroke-width="2" stroke-linecap="round" stroke-linejoin="round" stroke-miterlimit="10" d="
					M93.7618,426.2052c29.0916,6.3778,60.5606,1.1575,86.0346-14.2722"/>
				
					<path fill="none" stroke="#734E31" stroke-width="2" stroke-linecap="round" stroke-linejoin="round" stroke-miterlimit="10" d="
					M90.8465,442.0112c36.6081,10.897,75.4984-1.7191,112.399-11.5802c49.2446-13.1599,101.2527-21.4735,151.0808-10.7321
					c29.5349,6.3668,57.2806,19.2166,86.473,27.0042c61.0721,16.2923,126.9066,9.6327,186.3145-11.953
					c-1.4971,0.6211-2.9943,1.2422-4.4914,1.8633"/>
				
					<path fill="none" stroke="#734E31" stroke-width="2" stroke-linecap="round" stroke-linejoin="round" stroke-miterlimit="10" d="
					M163.521,457.3963c42.8698,7.47,85.4323-14.3908,128.9364-15.4007c32.8848-0.7634,64.7404,10.3905,95.7372,21.3991"/>
				
					<path fill="none" stroke="#734E31" stroke-width="2" stroke-linecap="round" stroke-linejoin="round" stroke-miterlimit="10" d="
					M385.5989,406.2962c35.4696,24.9717,80.7684,32.9727,124.0404,29.9365s85.128-16.2924,126.047-30.6909"/>
				
					<path fill="none" stroke="#734E31" stroke-width="2" stroke-linecap="round" stroke-linejoin="round" stroke-miterlimit="10" d="
					M453.5051,408.3534c10.3735,7.3698,22.937,11.3102,35.6049,12.5138c12.6678,1.2036,25.4714-0.2304,37.9157-2.8882"/>
			</g>
			<g>
				<g>
					<path fill="#AB744D" d="M635.4867,475.0397c-1.3809,0-2.5-1.1191-2.5-2.5V315.5831c0-1.3809,1.1191-2.5,2.5-2.5h59.8564
						c1.3809,0,2.5,1.1191,2.5,2.5v156.9565c0,1.3809-1.1191,2.5-2.5,2.5H635.4867z"/>
					<path fill="#734E31" d="M695.3431,315.5831v156.9565h-59.8564V315.5831H695.3431 M695.3431,310.5831h-59.8564
						c-2.7614,0-5,2.2385-5,5v156.9565c0,2.7615,2.2386,5,5,5h59.8564c2.7614,0,5-2.2385,5-5V315.5831
						C700.3431,312.8217,698.1046,310.5831,695.3431,310.5831L695.3431,310.5831z"/>
				</g>
				<g>
					<path fill="#C07F52" d="M635.4867,318.0831c-0.7065,0-1.3799-0.2988-1.854-0.8228c-0.4736-0.5239-0.7041-1.2236-0.6333-1.9268
						l4.0005-39.9043c0.1279-1.2778,1.2031-2.2505,2.4873-2.2505h51.8555c1.2842,0,2.3594,0.9727,2.4873,2.2505l4.0005,39.9043
						c0.0708,0.7031-0.1597,1.4028-0.6333,1.9268c-0.4741,0.5239-1.1475,0.8228-1.854,0.8228H635.4867z"/>
					<path fill="#734E31" d="M691.3429,275.6788l4.0002,39.9043h-59.8564l4.0003-39.9043H691.3429 M691.3429,270.6788h-51.8558
						c-2.5683,0-4.7189,1.9458-4.975,4.5012l-4.0003,39.9043c-0.141,1.4058,0.3195,2.8057,1.2673,3.8533
						c0.9479,1.0479,2.2949,1.6455,3.7077,1.6455h59.8564c1.4128,0,2.7598-0.5977,3.7077-1.6455
						c0.9479-1.0476,1.4083-2.4475,1.2673-3.8533l-4.0002-39.9043C696.0618,272.6246,693.9112,270.6788,691.3429,270.6788
						L691.3429,270.6788z"/>
				</g>
				<g>
					<path fill="#996141" d="M639.6464,515.1661c-1.2798,0-2.3535-0.9668-2.4863-2.2407l-4.1592-39.8882
						c-0.0732-0.7026,0.1538-1.4033,0.626-1.9292c0.4717-0.5259,1.144-0.8271,1.8506-0.8301c0,0,59.8618-0.2383,59.8652-0.2383
						c0.7026,0,1.3735,0.2959,1.8472,0.8154c0.4761,0.522,0.709,1.2207,0.6411,1.9238l-3.8413,39.9199
						c-0.1226,1.2783-1.1943,2.2554-2.4785,2.2607C691.5111,514.9596,639.6498,515.1661,639.6464,515.1661z"/>
					<path fill="#734E31" d="M695.3429,472.5397h0.005 M695.3429,472.5397l-3.8413,39.9199l-51.8555,0.2065l-4.1591-39.8879
						L695.3429,472.5397 M695.3479,467.5397h-0.005c-0.0032,0-0.0062,0-0.0093,0c-0.002,0-0.0038,0-0.0057,0
						c-0.0009,0-0.002,0-0.0029,0c-0.0007,0-0.0013,0-0.002,0l-59.8559,0.2385c-1.4128,0.0056-2.7574,0.6089-3.7011,1.6602
						c-0.9437,1.0515-1.3986,2.4531-1.252,3.8584l4.1591,39.8879c0.2656,2.5476,2.4135,4.4814,4.9727,4.4814
						c0.0069,0,0.0134,0,0.0203,0l51.8555-0.2065c2.5683-0.0103,4.7111-1.9646,4.9571-4.521l3.8248-39.748
						c0.0278-0.2131,0.0421-0.4302,0.0421-0.6509C700.3454,469.7782,698.1093,467.5397,695.3479,467.5397L695.3479,467.5397z
						 M695.3429,477.5397h0.005H695.3429L695.3429,477.5397z"/>
				</g>
			</g>
			<g>
				<g>
					<path fill="#AB744D" d="M31.1859,474.9288c-1.3809,0-2.5-1.1191-2.5-2.5V315.4723c0-1.3809,1.1191-2.5,2.5-2.5h59.8564
						c1.3809,0,2.5,1.1191,2.5,2.5v156.9565c0,1.3809-1.1191,2.5-2.5,2.5H31.1859z"/>
					<path fill="#734E31" d="M91.0422,315.472v156.9568H31.1859V315.472H91.0422 M91.0422,310.472H31.1859c-2.7615,0-5,2.2385-5,5
						v156.9568c0,2.7615,2.2385,5,5,5h59.8563c2.7615,0,5-2.2385,5-5V315.472C96.0422,312.7106,93.8037,310.472,91.0422,310.472
						L91.0422,310.472z"/>
				</g>
				<g>
					<path fill="#C07F52" d="M31.1859,317.9723c-0.7065,0-1.3799-0.2988-1.854-0.8228c-0.4736-0.5239-0.7041-1.2236-0.6333-1.9268
						l4.0005-39.9043c0.1279-1.2778,1.2031-2.2505,2.4873-2.2505h51.8555c1.2842,0,2.3594,0.9727,2.4873,2.2505l4.0005,39.9043
						c0.0708,0.7031-0.1597,1.4028-0.6333,1.9268c-0.4741,0.5239-1.1475,0.8228-1.854,0.8228H31.1859z"/>
					<path fill="#734E31" d="M87.042,275.5677l4.0002,39.9043H31.1859l4.0002-39.9043H87.042 M87.042,270.5677H35.1862
						c-2.5684,0-4.7189,1.9458-4.9751,4.5012l-4.0002,39.9043c-0.1409,1.4058,0.3196,2.8057,1.2675,3.8533
						c0.9479,1.0479,2.2948,1.6455,3.7076,1.6455h59.8563c1.4128,0,2.7598-0.5977,3.7076-1.6455
						c0.948-1.0476,1.4083-2.4475,1.2675-3.8533l-4.0002-39.9043C91.7609,272.5135,89.6104,270.5677,87.042,270.5677
						L87.042,270.5677z"/>
				</g>
				<g>
					<path fill="#996141" d="M35.3451,515.0553c-1.2798,0-2.3535-0.9668-2.4863-2.2407l-4.1592-39.8882
						c-0.0732-0.7026,0.1538-1.4033,0.626-1.9292c0.4717-0.5259,1.144-0.8271,1.8506-0.8301c0,0,59.8623-0.2383,59.8657-0.2383
						c0.7026,0,1.3735,0.2959,1.8472,0.8154c0.4761,0.522,0.709,1.2207,0.6411,1.9238l-3.8413,39.9199
						c-0.1226,1.2783-1.1943,2.2554-2.4785,2.2607C87.2103,514.8488,35.3485,515.0553,35.3451,515.0553z"/>
					<path fill="#734E31" d="M91.042,472.4288h0.005 M91.042,472.4288l-3.8413,39.9197l-51.8555,0.2065l-4.1591-39.8879
						L91.042,472.4288 M91.047,467.4288h-0.005c-0.0032,0-0.0062,0-0.0095,0c-0.0018,0-0.0035,0-0.0054,0
						c-0.001,0-0.0021,0-0.0031,0c-0.0006,0-0.0012,0-0.002,0l-59.8558,0.2383c-1.4128,0.0056-2.7573,0.6089-3.701,1.6602
						c-0.9437,1.0515-1.3986,2.4531-1.2521,3.8584l4.1591,39.8879c0.2656,2.5476,2.4135,4.4814,4.9727,4.4814
						c0.007,0,0.0134,0,0.0203,0l51.8555-0.2065c2.5682-0.0103,4.7111-1.9646,4.9572-4.521l3.8247-39.7478
						c0.0277-0.2131,0.0421-0.4302,0.0421-0.6509C96.0446,469.6674,93.8085,467.4288,91.047,467.4288L91.047,467.4288z
						 M91.042,477.4288h0.005H91.042L91.042,477.4288z"/>
				</g>
			</g>
			<g>
				<path fill="#B0744B" d="M4.9999,417.8439c-1.3809,0-2.5-1.1191-2.5-2.5v-62.5166c0-1.3809,1.1191-2.5,2.5-2.5h722.2666
					c1.3809,0,2.5,1.1191,2.5,2.5v62.5166c0,1.3809-1.1191,2.5-2.5,2.5H4.9999z"/>
				<path fill="#734E31" d="M727.2665,352.827v62.5166H5V352.827H727.2665 M727.2665,347.827H5c-2.7614,0-5,2.2385-5,5v62.5166
					c0,2.7615,2.2386,5,5,5h722.2665c2.7614,0,5-2.2385,5-5V352.827C732.2665,350.0656,730.0279,347.827,727.2665,347.827
					L727.2665,347.827z"/>
			</g>
			<g opacity="0.38">
				
					<path fill="none" stroke="#734E31" stroke-width="2" stroke-linecap="round" stroke-linejoin="round" stroke-miterlimit="10" d="
					M41.1282,317.4806c0.9942,10.7872,2.3363,21.5424,4.0237,32.2431"/>
				
					<path fill="none" stroke="#734E31" stroke-width="2" stroke-linecap="round" stroke-linejoin="round" stroke-miterlimit="10" d="
					M72.6408,318.1994c-0.8227,10.2047-1.0155,20.4601-0.5768,30.6885c0.0154,0.3593,0.0918,0.802,0.4346,0.9106
					c0.3428,0.1087,0.5317-0.6155,0.1797-0.5421"/>
				
					<path fill="none" stroke="#734E31" stroke-width="2" stroke-linecap="round" stroke-linejoin="round" stroke-miterlimit="10" d="
					M60.9053,465.94c0.2202-14.3865,0.1695-28.7771-0.1521-43.1617"/>
				
					<path fill="none" stroke="#734E31" stroke-width="2" stroke-linecap="round" stroke-linejoin="round" stroke-miterlimit="10" d="
					M79.1742,468.8699c-0.841-15.3846-1.8394-30.7605-2.9951-46.1246"/>
				
					<path fill="none" stroke="#734E31" stroke-width="2" stroke-linecap="round" stroke-linejoin="round" stroke-miterlimit="10" d="
					M43.0921,470.2967c-1.2739-16.5343-1.8576-33.1218-1.7492-49.7047"/>
				
					<path fill="none" stroke="#734E31" stroke-width="2" stroke-linecap="round" stroke-linejoin="round" stroke-miterlimit="10" d="
					M642.2197,316.7478c0.351,11.0077,0.7021,22.0154,1.0531,33.0231c0.1979-0.2864,0.3958-0.5728,0.5936-0.8591"/>
				
					<path fill="none" stroke="#734E31" stroke-width="2" stroke-linecap="round" stroke-linejoin="round" stroke-miterlimit="10" d="
					M653.53,316.7426c-0.0595,10.0313,0.4324,20.0659,1.4727,30.0433"/>
				
					<path fill="none" stroke="#734E31" stroke-width="2" stroke-linecap="round" stroke-linejoin="round" stroke-miterlimit="10" d="
					M679.7714,318.2071c-0.3828,10.4855-0.253,20.9896,0.3889,31.4624"/>
				
					<path fill="none" stroke="#734E31" stroke-width="2" stroke-linecap="round" stroke-linejoin="round" stroke-miterlimit="10" d="
					M644.5124,415.4737c-0.5713,16.8186-1.1426,33.6373-1.7139,50.4559"/>
				
					<path fill="none" stroke="#734E31" stroke-width="2" stroke-linecap="round" stroke-linejoin="round" stroke-miterlimit="10" d="
					M656.669,417.6626c0.3459,16.5807,0.6918,33.1613,1.0377,49.7419"/>
				
					<path fill="none" stroke="#734E31" stroke-width="2" stroke-linecap="round" stroke-linejoin="round" stroke-miterlimit="10" d="
					M672.0746,417.6837c0.7343,16.9897,1.4686,33.9795,2.2029,50.9692c0.0994-1.3908,0.1987-2.7817,0.298-4.1725"/>
				
					<path fill="none" stroke="#734E31" stroke-width="2" stroke-linecap="round" stroke-linejoin="round" stroke-miterlimit="10" d="
					M687.1792,419.8645c0.0078,15.8675,0.5693,31.7347,1.683,47.563"/>
				
					<path fill="none" stroke="#734E31" stroke-width="2" stroke-linecap="round" stroke-linejoin="round" stroke-miterlimit="10" d="
					M56.5915,319.6659c0.456,8.3815,1.5524,16.728,3.2765,24.9429"/>
			</g>
			<g opacity="0.3">
				<rect x="5" y="353.8271" fill="#F9BF80" width="720.4997" height="17.4242"/>
			</g>
			<g opacity="0.51">
				<polygon fill="#F9BF80" points="638.4721,275.7344 634.4719,315.6387 694.3282,315.6387 690.3279,275.7344 				"/>
			</g>
			<g opacity="0.51">
				<polygon fill="#F9BF80" points="34.1712,275.6234 30.171,315.5276 90.0273,315.5276 86.0271,275.6234 				"/>
			</g>
			<g opacity="0.58">
				<polygon fill="#7C482E" points="31.1859,421.1928 696.2457,418.1939 634.4719,429.3257 630.5366,453.7319 96.3172,453.238 
					96.3172,431.2031 				"/>
			</g>
			<g opacity="0.31">
				
					<path fill="none" stroke="#734E31" stroke-width="2" stroke-linecap="round" stroke-linejoin="round" stroke-miterlimit="10" d="
					M53.1846,295.9363c-2.2738,1.1418-4.9081-2.0268-3.9386-4.3792c0.9695-2.3524,4.0579-3.2013,6.5057-2.507
					c0.0245,0.0069,0.0489,0.014,0.0733,0.0211c3.6733,1.0799,2.7819,6.5449-1.0461,6.6215
					c-0.1978,0.0039-0.3957,0.0032-0.5935-0.0022"/>
				
					<path fill="none" stroke="#734E31" stroke-width="2" stroke-linecap="round" stroke-linejoin="round" stroke-miterlimit="10" d="
					M57.9172,284.0169c-3.0303-0.3764-6.1367-0.7381-9.1103-0.0436s-5.8364,2.6674-6.731,5.587
					c-0.9907,3.2331,0.7409,6.8688,3.4989,8.8253c2.758,1.9566,6.3108,2.4749,9.6865,2.2759
					c3.6118-0.2129,7.3816-1.3105,9.7747-4.024C67.429,293.924,69.1698,286.2073,57.9172,284.0169"/>
				
					<path fill="none" stroke="#734E31" stroke-width="2" stroke-linecap="round" stroke-linejoin="round" stroke-miterlimit="10" d="
					M39.1554,281.9601c-1.334,1.3292-2.2449,3.034-2.8741,4.8089c-0.8098,2.2841-1.1791,4.7669-0.7332,7.149
					c1.0125,5.4095,5.9573,9.2426,11.0553,11.3158c4.8424,1.9693,10.2606,2.8223,15.3473,1.6172s9.7649-4.6607,11.7202-9.5088
					c1.9553-4.8481,0.7412-11.0005-3.3775-14.2196C63.5486,277.851,45.8017,275.3374,39.1554,281.9601z"/>
				
					<path fill="none" stroke="#734E31" stroke-width="2" stroke-linecap="round" stroke-linejoin="round" stroke-miterlimit="10" d="
					M68.2797,275.9264c5.4306,1.1558,10.2361,4.947,12.6242,9.9594s2.3048,11.1328-0.2188,16.0783
					c-2.4691,4.8387-7.0858,8.3926-12.2125,10.189s-10.7275,1.9412-16.0943,1.1003c-9.3023-1.4574-18.8321-6.6823-21.8737-15.5933"
					/>
				
					<path fill="none" stroke="#734E31" stroke-width="2" stroke-linecap="round" stroke-linejoin="round" stroke-miterlimit="10" d="
					M33.09,281.4178c2.6874-3.8933,7.4084-6.2943,12.1376-6.1727"/>
				
					<path fill="none" stroke="#734E31" stroke-width="2" stroke-linecap="round" stroke-linejoin="round" stroke-miterlimit="10" d="
					M77.9302,274.5087c0.6904,0.3315,1.3814,0.6633,2.0503,1.0363c4.8166,2.6855,8.3373,7.5868,9.3446,13.0086"/>
				
					<path fill="none" stroke="#734E31" stroke-width="2" stroke-linecap="round" stroke-linejoin="round" stroke-miterlimit="10" d="
					M75.886,315.4068c5.7823-1.6467,10.4662-6.6698,11.7052-12.5529"/>
				
					<path fill="none" stroke="#734E31" stroke-width="2" stroke-linecap="round" stroke-linejoin="round" stroke-miterlimit="10" d="
					M85.8095,316.5636c2.0164-0.288,3.7963-1.8385,4.3581-3.7963"/>
				
					<path fill="none" stroke="#734E31" stroke-width="2" stroke-linecap="round" stroke-linejoin="round" stroke-miterlimit="10" d="
					M31.333,309.9692c1.3782,2.1191,3.5449,3.7123,5.9785,4.3961"/>
			</g>
			<g opacity="0.31">
				
					<path fill="none" stroke="#734E31" stroke-width="2" stroke-linecap="round" stroke-linejoin="round" stroke-miterlimit="10" d="
					M657.2485,296.5769c-2.2737,1.1418-4.9081-2.0268-3.9385-4.3792c0.9695-2.3524,4.0579-3.2013,6.5057-2.507
					c0.0245,0.0069,0.0489,0.014,0.0732,0.0211c3.6733,1.0799,2.7819,6.5449-1.046,6.6215
					c-0.1978,0.0039-0.3957,0.0032-0.5935-0.0022"/>
				
					<path fill="none" stroke="#734E31" stroke-width="2" stroke-linecap="round" stroke-linejoin="round" stroke-miterlimit="10" d="
					M661.9812,284.6575c-3.0303-0.3764-6.1367-0.7381-9.1103-0.0436c-2.9736,0.6945-5.8364,2.6674-6.7311,5.587
					c-0.9907,3.2331,0.7409,6.8688,3.4989,8.8253c2.7579,1.9566,6.3108,2.4749,9.6865,2.2759
					c3.6118-0.2129,7.3817-1.3105,9.7747-4.024S673.2338,286.8479,661.9812,284.6575"/>
				
					<path fill="none" stroke="#734E31" stroke-width="2" stroke-linecap="round" stroke-linejoin="round" stroke-miterlimit="10" d="
					M643.2194,282.6006c-1.334,1.3292-2.2449,3.034-2.8741,4.8089c-0.8099,2.2841-1.1791,4.7669-0.7332,7.149
					c1.0125,5.4095,5.9573,9.2426,11.0553,11.3158c4.8424,1.9693,10.2606,2.8223,15.3473,1.6172
					c5.0867-1.2051,9.7649-4.6607,11.7202-9.5088c1.9553-4.8481,0.7411-11.0005-3.3775-14.2196
					C667.6126,278.4916,649.8656,275.978,643.2194,282.6006z"/>
				
					<path fill="none" stroke="#734E31" stroke-width="2" stroke-linecap="round" stroke-linejoin="round" stroke-miterlimit="10" d="
					M672.3437,276.567c5.4305,1.1558,10.2361,4.947,12.6242,9.9594c2.3881,5.0124,2.3048,11.1328-0.2188,16.0783
					c-2.4691,4.8387-7.0858,8.3926-12.2125,10.189c-5.1266,1.7964-10.7275,1.9412-16.0943,1.1003
					c-9.3024-1.4574-18.8321-6.6823-21.8737-15.5933"/>
				
					<path fill="none" stroke="#734E31" stroke-width="2" stroke-linecap="round" stroke-linejoin="round" stroke-miterlimit="10" d="
					M637.1539,282.0584c2.6874-3.8933,7.4084-6.2943,12.1376-6.1727"/>
				
					<path fill="none" stroke="#734E31" stroke-width="2" stroke-linecap="round" stroke-linejoin="round" stroke-miterlimit="10" d="
					M681.9941,275.1493c0.6904,0.3315,1.3813,0.6633,2.0503,1.0363c4.8165,2.6855,8.3373,7.5868,9.3447,13.0086"/>
				
					<path fill="none" stroke="#734E31" stroke-width="2" stroke-linecap="round" stroke-linejoin="round" stroke-miterlimit="10" d="
					M679.95,316.0474c5.7823-1.6467,10.4662-6.6698,11.7053-12.5529"/>
				
					<path fill="none" stroke="#734E31" stroke-width="2" stroke-linecap="round" stroke-linejoin="round" stroke-miterlimit="10" d="
					M689.8734,317.2042c2.0164-0.288,3.7963-1.8385,4.3581-3.7963"/>
				
					<path fill="none" stroke="#734E31" stroke-width="2" stroke-linecap="round" stroke-linejoin="round" stroke-miterlimit="10" d="
					M635.397,310.6098c1.3782,2.1191,3.5449,3.7123,5.9786,4.3961"/>
			</g>
			<g opacity="0.31">
				
					<path fill="none" stroke="#734E31" stroke-width="2" stroke-linecap="round" stroke-linejoin="round" stroke-miterlimit="10" d="
					M671.0219,491.6705c2.2712-1.1469,4.9126,2.0158,3.9484,4.3704c-0.9642,2.3546-4.0507,3.2104-6.5001,2.5216
					c-0.0245-0.0069-0.049-0.0139-0.0734-0.021c-3.6757-1.0716-2.7966-6.5387,1.0312-6.6237
					c0.1978-0.0044,0.3956-0.0041,0.5934,0.0009"/>
				
					<path fill="none" stroke="#734E31" stroke-width="2" stroke-linecap="round" stroke-linejoin="round" stroke-miterlimit="10" d="
					M666.316,503.6005c3.0312,0.3697,6.1383,0.7243,9.1104,0.0231c2.972-0.7011,5.8304-2.6805,6.7185-5.6021
					c0.9835-3.2353-0.7563-6.8671-3.5187-8.8175c-2.7623-1.9504-6.3163-2.4607-9.6915-2.2542
					c-3.6113,0.221-7.3787,1.3271-9.7657,4.046C656.782,493.7148,655.0585,501.4354,666.316,503.6005"/>
				
					<path fill="none" stroke="#734E31" stroke-width="2" stroke-linecap="round" stroke-linejoin="round" stroke-miterlimit="10" d="
					M685.0823,505.6153c1.331-1.3322,2.2381-3.039,2.8634-4.8153c0.8047-2.2859,1.1683-4.7696,0.7172-7.1506
					c-1.0247-5.4073-5.978-9.2292-11.0807-11.291c-4.8467-1.9584-10.2668-2.7993-15.3508-1.5828s-9.7545,4.6826-11.6989,9.535
					c-1.9445,4.8524-0.7166,11.0021,3.4094,14.212C660.6984,509.7791,678.4509,512.2528,685.0823,505.6153z"/>
				
					<path fill="none" stroke="#734E31" stroke-width="2" stroke-linecap="round" stroke-linejoin="round" stroke-miterlimit="10" d="
					M655.9716,511.7142c-5.4331-1.1436-10.2472-4.924-12.6465-9.931c-2.3993-5.007-2.3297-11.1276,0.1828-16.0788
					c2.4583-4.8442,7.067-8.4085,12.1896-10.2164c5.1226-1.8079,10.7231-1.9652,16.0919-1.1364
					c9.3055,1.4366,18.847,6.6401,21.9086,15.5443"/>
				
					<path fill="none" stroke="#734E31" stroke-width="2" stroke-linecap="round" stroke-linejoin="round" stroke-miterlimit="10" d="
					M691.149,506.1439c-2.6786,3.8994-7.3943,6.3109-12.1238,6.2"/>
				
					<path fill="none" stroke="#734E31" stroke-width="2" stroke-linecap="round" stroke-linejoin="round" stroke-miterlimit="10" d="
					M646.3244,513.1535c-0.6912-0.33-1.3829-0.6602-2.0526-1.0316c-4.8226-2.6747-8.3543-7.5681-9.3738-12.9877"/>
				
					<path fill="none" stroke="#734E31" stroke-width="2" stroke-linecap="round" stroke-linejoin="round" stroke-miterlimit="10" d="
					M648.2769,472.251c-5.7786,1.6597-10.4512,6.6932-11.6771,12.5791"/>
				
					<path fill="none" stroke="#734E31" stroke-width="2" stroke-linecap="round" stroke-linejoin="round" stroke-miterlimit="10" d="
					M638.3508,471.1164c-2.0157,0.2925-3.7922,1.847-4.3495,3.8061"/>
				
					<path fill="none" stroke="#734E31" stroke-width="2" stroke-linecap="round" stroke-linejoin="round" stroke-miterlimit="10" d="
					M692.8419,477.5886c-1.383-2.1161-3.5532-3.7043-5.9884-4.3827"/>
			</g>
			<g opacity="0.31">
				
					<path fill="none" stroke="#734E31" stroke-width="2" stroke-linecap="round" stroke-linejoin="round" stroke-miterlimit="10" d="
					M66.958,492.3843c2.2712-1.1469,4.9126,2.0158,3.9484,4.3704c-0.9643,2.3546-4.0507,3.2104-6.5001,2.5216
					c-0.0245-0.0069-0.0489-0.0139-0.0733-0.021c-3.6757-1.0717-2.7966-6.5387,1.0312-6.6237
					c0.1978-0.0044,0.3957-0.0042,0.5935,0.0009"/>
				
					<path fill="none" stroke="#734E31" stroke-width="2" stroke-linecap="round" stroke-linejoin="round" stroke-miterlimit="10" d="
					M62.2521,504.3144c3.0312,0.3697,6.1383,0.7243,9.1104,0.0231c2.972-0.7011,5.8304-2.6805,6.7185-5.6021
					c0.9835-3.2354-0.7563-6.8671-3.5187-8.8175s-6.3164-2.4607-9.6916-2.2542c-3.6113,0.221-7.3787,1.327-9.7656,4.046
					S50.9947,502.1492,62.2521,504.3144"/>
				
					<path fill="none" stroke="#734E31" stroke-width="2" stroke-linecap="round" stroke-linejoin="round" stroke-miterlimit="10" d="
					M81.0185,506.3292c1.331-1.3322,2.238-3.039,2.8634-4.8154c0.8047-2.2859,1.1684-4.7695,0.7172-7.1506
					c-1.0247-5.4072-5.978-9.2292-11.0807-11.291c-4.8468-1.9584-10.2669-2.7993-15.3508-1.5828s-9.7544,4.6826-11.6989,9.535
					s-0.7165,11.0021,3.4094,14.212C56.6345,510.4929,74.3871,512.9667,81.0185,506.3292z"/>
				
					<path fill="none" stroke="#734E31" stroke-width="2" stroke-linecap="round" stroke-linejoin="round" stroke-miterlimit="10" d="
					M51.9078,512.4281c-5.4332-1.1437-10.2472-4.924-12.6465-9.9311s-2.3298-11.1276,0.1828-16.0788
					c2.4583-4.8443,7.067-8.4085,12.1896-10.2164c5.1226-1.8079,10.7231-1.9652,16.0918-1.1364
					c9.3056,1.4366,18.847,6.6401,21.9086,15.5443"/>
				
					<path fill="none" stroke="#734E31" stroke-width="2" stroke-linecap="round" stroke-linejoin="round" stroke-miterlimit="10" d="
					M87.0851,506.8577c-2.6786,3.8994-7.3943,6.3109-12.1237,6.1999"/>
				
					<path fill="none" stroke="#734E31" stroke-width="2" stroke-linecap="round" stroke-linejoin="round" stroke-miterlimit="10" d="
					M42.2605,513.8674c-0.6912-0.33-1.3829-0.6602-2.0526-1.0316c-4.8226-2.6747-8.3543-7.5681-9.3738-12.9877"/>
				
					<path fill="none" stroke="#734E31" stroke-width="2" stroke-linecap="round" stroke-linejoin="round" stroke-miterlimit="10" d="
					M44.213,472.9648c-5.7786,1.6597-10.4512,6.6932-11.6771,12.5791"/>
				
					<path fill="none" stroke="#734E31" stroke-width="2" stroke-linecap="round" stroke-linejoin="round" stroke-miterlimit="10" d="
					M34.287,471.8303c-2.0158,0.2925-3.7921,1.847-4.3495,3.8061"/>
				
					<path fill="none" stroke="#734E31" stroke-width="2" stroke-linecap="round" stroke-linejoin="round" stroke-miterlimit="10" d="
					M88.778,478.3025c-1.383-2.1161-3.5532-3.7043-5.9884-4.3827"/>
			</g>
		</g>
		<g>
			
				<path fill="#EFEEF0" stroke="#C0C0C2" stroke-width="6" stroke-linecap="round" stroke-linejoin="round" stroke-miterlimit="10" d="
				M358.8174,30.933V13.6411c0,0,59.8564,17.2918,126.3634,17.2918s97.1003-8.6459,97.1003-8.6459v8.6459H358.8174z"/>
			
				<path fill="#EFEEF0" stroke="#C0C0C2" stroke-width="6" stroke-linecap="round" stroke-linejoin="round" stroke-miterlimit="10" d="
				M378.7696,3c0,0,47.8851,21.2823,110.4017,19.287s75.8181-8.6459,75.8181-8.6459v12.0505L378.7696,30.933V3z"/>
			
				<path fill="#876A9C" stroke="#58456E" stroke-width="6" stroke-linecap="round" stroke-linejoin="round" stroke-miterlimit="10" d="
				M378.7695,231.7843c-97.0029-5.6235-203.5411-0.1708-314.0402,5.4528l2.7872-95.9024c111.7875,7.3221,215.4429,7.2351,311.2529,0
				V231.7843z"/>
			
				<path fill="#FFFFFF" stroke="#B0B0B0" stroke-width="4" stroke-linecap="round" stroke-linejoin="round" stroke-miterlimit="10" d="
				M378.7695,221.1197c-93.01-5.0758-192.6673-5.013-298.7287,0v-66.4836c100.1883,5.3024,199.7722,5.3687,298.7287,0V221.1197z"/>
			
				<rect x="131.3633" y="237.2371" fill="#F09849" stroke="#B56F2F" stroke-width="5" stroke-linecap="round" stroke-linejoin="round" stroke-miterlimit="10" width="279.3296" height="107.6092"/>
			
				<line fill="none" stroke="#B56F2F" stroke-width="5" stroke-linecap="round" stroke-linejoin="round" stroke-miterlimit="10" x1="131.3633" y1="263.8307" x2="366.1332" y2="263.8307"/>
			<g>
				
					<rect x="87.4579" y="94.0868" transform="matrix(0.9999 0.014 -0.014 0.9999 1.6495 -3.2582)" fill="#90D68B" stroke="#53A166" stroke-width="6" stroke-linecap="round" stroke-linejoin="round" stroke-miterlimit="10" width="291.3009" height="43.7585"/>
				<g>
					<g>
						<g>
							<path fill="#DEDDE1" stroke="#B6B6B7" stroke-width="5" stroke-miterlimit="10" d="M113.1857,140.0625
								c-2.2368-0.0314-4.3081-1.3046-5.0444-3.2926L91.8437,92.7784c-0.9269-2.5014,0.6106-5.1872,3.4333-5.999
								c2.8256-0.8122,5.8632,0.5591,6.7891,3.0596l16.2976,43.9915c0.9268,2.5014-0.6106,5.1871-3.4333,5.999
								C114.3511,139.996,113.7626,140.0706,113.1857,140.0625z"/>
							<path fill="#DEDDE1" stroke="#B6B6B7" stroke-width="5" stroke-miterlimit="10" d="M136.6012,140.391
								c-2.2368-0.0314-4.3081-1.3046-5.0444-3.2926l-16.2967-43.9915c-0.9269-2.5014,0.6106-5.1872,3.4333-5.999
								c2.8246-0.8122,5.8632,0.5591,6.7891,3.0596l16.2967,43.9915c0.9268,2.5014-0.6106,5.1871-3.4333,5.999
								C137.7665,140.3244,137.178,140.399,136.6012,140.391z"/>
						</g>
						<g>
							<path fill="#DEDDE1" stroke="#B6B6B7" stroke-width="5" stroke-miterlimit="10" d="M158.0052,140.6912
								c-2.2368-0.0314-4.3081-1.3046-5.0444-3.2926l-16.2976-43.9915c-0.9269-2.5014,0.6106-5.1872,3.4333-5.999
								c2.8265-0.8122,5.8632,0.5591,6.7891,3.0596l16.2976,43.9915c0.9268,2.5014-0.6106,5.1872-3.4333,5.999
								C159.1706,140.6247,158.582,140.6993,158.0052,140.6912z"/>
							<path fill="#DEDDE1" stroke="#B6B6B7" stroke-width="5" stroke-miterlimit="10" d="M181.4206,141.0197
								c-2.2368-0.0314-4.3081-1.3046-5.0444-3.2926l-16.2976-43.9915c-0.9268-2.5014,0.6106-5.1872,3.4333-5.999
								c2.8265-0.8122,5.8632,0.5591,6.7891,3.0596l16.2976,43.9915c0.9268,2.5014-0.6106,5.1872-3.4333,5.999
								C182.586,140.9532,181.9974,141.0278,181.4206,141.0197z"/>
						</g>
						<g>
							<path fill="#DEDDE1" stroke="#B6B6B7" stroke-width="5" stroke-miterlimit="10" d="M205.3059,141.3547
								c-2.2368-0.0314-4.308-1.3046-5.0444-3.2926l-16.2976-43.9915c-0.9268-2.5014,0.6106-5.1872,3.4333-5.999
								c2.8265-0.8122,5.8632,0.5591,6.7891,3.0596l16.2976,43.9915c0.9269,2.5014-0.6106,5.1871-3.4333,5.999
								C206.4713,141.2882,205.8827,141.3628,205.3059,141.3547z"/>
							<path fill="#DEDDE1" stroke="#B6B6B7" stroke-width="5" stroke-miterlimit="10" d="M228.7213,141.6832
								c-2.2368-0.0314-4.3081-1.3046-5.0444-3.2926l-16.2976-43.9915c-0.9269-2.5014,0.6106-5.1872,3.4333-5.999
								c2.8265-0.8122,5.8632,0.5591,6.7891,3.0596l16.2976,43.9915c0.9268,2.5014-0.6106,5.1871-3.4333,5.999
								C229.8867,141.6167,229.2981,141.6913,228.7213,141.6832z"/>
						</g>
						<g>
							<path fill="#DEDDE1" stroke="#B6B6B7" stroke-width="5" stroke-miterlimit="10" d="M250.1243,141.9834
								c-2.2368-0.0314-4.3081-1.3046-5.0444-3.2926l-16.2976-43.9915c-0.9268-2.5014,0.6106-5.1872,3.4333-5.999
								c2.8256-0.8122,5.8622,0.5591,6.7891,3.0596l16.2976,43.9915c0.9269,2.5014-0.6106,5.1872-3.4333,5.999
								C251.2897,141.9169,250.7012,141.9915,250.1243,141.9834z"/>
							<path fill="#DEDDE1" stroke="#B6B6B7" stroke-width="5" stroke-miterlimit="10" d="M273.5397,142.3119
								c-2.2368-0.0314-4.308-1.3046-5.0444-3.2926l-16.2976-43.9915c-0.9268-2.5014,0.6106-5.1872,3.4333-5.999
								c2.8256-0.8122,5.8622,0.5591,6.7891,3.0596l16.2976,43.9915c0.9268,2.5014-0.6106,5.1872-3.4333,5.999
								C274.7051,142.2453,274.1166,142.3199,273.5397,142.3119z"/>
						</g>
					</g>
					<g>
						<g>
							<path fill="#DEDDE1" stroke="#B6B6B7" stroke-width="5" stroke-miterlimit="10" d="M297.1241,142.2428
								c-2.2368-0.0314-4.308-1.3046-5.0444-3.2926l-16.2976-43.9915c-0.9268-2.5014,0.6106-5.1872,3.4333-5.999
								c2.8246-0.8122,5.8632,0.5591,6.7891,3.0596l16.2976,43.9915c0.9269,2.5014-0.6106,5.1872-3.4333,5.999
								C298.2895,142.1762,297.7009,142.2508,297.1241,142.2428z"/>
							<path fill="#DEDDE1" stroke="#B6B6B7" stroke-width="5" stroke-miterlimit="10" d="M320.5395,142.5712
								c-2.2368-0.0314-4.308-1.3046-5.0444-3.2926l-16.2976-43.9915c-0.9269-2.5014,0.6106-5.1872,3.4333-5.999
								c2.8246-0.8122,5.8632,0.5591,6.7891,3.0596l16.2976,43.9915c0.9268,2.5014-0.6106,5.1872-3.4333,5.999
								C321.7049,142.5047,321.1163,142.5793,320.5395,142.5712z"/>
						</g>
						<g>
							<path fill="#DEDDE1" stroke="#B6B6B7" stroke-width="5" stroke-miterlimit="10" d="M341.9425,142.8714
								c-2.2368-0.0314-4.308-1.3046-5.0444-3.2926l-16.2976-43.9915c-0.9269-2.5014,0.6106-5.1872,3.4333-5.999
								c2.8265-0.8122,5.8632,0.5591,6.7891,3.0596l16.2976,43.9915c0.9268,2.5014-0.6106,5.1872-3.4333,5.999
								C343.1079,142.8049,342.5194,142.8795,341.9425,142.8714z"/>
							<path fill="#DEDDE1" stroke="#B6B6B7" stroke-width="5" stroke-miterlimit="10" d="M365.3579,143.1999
								c-2.2368-0.0314-4.308-1.3046-5.0444-3.2926l-16.2976-43.9915c-0.9268-2.5014,0.6106-5.1872,3.4333-5.999
								c2.8265-0.8122,5.8632,0.5591,6.7891,3.0596l16.2976,43.9915c0.9268,2.5014-0.6106,5.1871-3.4333,5.999
								C366.5233,143.1334,365.9348,143.208,365.3579,143.1999z"/>
						</g>
						<g>
							<path fill="#DEDDE1" stroke="#B6B6B7" stroke-width="5" stroke-miterlimit="10" d="M389.2432,143.5349
								c-2.2368-0.0314-4.308-1.3046-5.0444-3.2926l-16.2976-43.9915c-0.9269-2.5014,0.6106-5.1872,3.4333-5.999
								c2.8265-0.8122,5.8632,0.5591,6.7891,3.0596l16.2976,43.9915c0.9269,2.5014-0.6106,5.1871-3.4333,5.999
								C390.4086,143.4684,389.8201,143.543,389.2432,143.5349z"/>
							<path fill="#DEDDE1" stroke="#B6B6B7" stroke-width="5" stroke-miterlimit="10" d="M412.6586,143.8634
								c-2.2368-0.0314-4.308-1.3046-5.0444-3.2926l-16.2976-43.9915c-0.9269-2.5014,0.6106-5.1872,3.4333-5.999
								c2.8265-0.8122,5.8632,0.5591,6.7891,3.0596l16.2976,43.9915c0.9268,2.5014-0.6106,5.1872-3.4333,5.999
								C413.824,143.7969,413.2355,143.8715,412.6586,143.8634z"/>
						</g>
						<g>
							<path fill="#DEDDE1" stroke="#B6B6B7" stroke-width="5" stroke-miterlimit="10" d="M434.0617,144.1636
								c-2.2368-0.0314-4.308-1.3046-5.0444-3.2926l-16.2967-43.9915c-0.9268-2.5014,0.6106-5.1872,3.4333-5.999
								c2.8246-0.8122,5.8632,0.5591,6.7891,3.0596l16.2967,43.9915c0.9268,2.5014-0.6106,5.1872-3.4333,5.999
								C435.2271,144.0971,434.6386,144.1717,434.0617,144.1636z"/>
							<path fill="#DEDDE1" stroke="#B6B6B7" stroke-width="5" stroke-miterlimit="10" d="M457.4781,144.4921
								c-2.2368-0.0314-4.308-1.3046-5.0444-3.2926L436.1361,97.208c-0.9269-2.5014,0.6106-5.1872,3.4333-5.999
								c2.8246-0.8122,5.8632,0.5591,6.7891,3.0596l16.2976,43.9915c0.9268,2.5014-0.6106,5.1871-3.4333,5.999
								C458.6435,144.4256,458.0549,144.5002,457.4781,144.4921z"/>
						</g>
					</g>
				</g>
			</g>
			<g opacity="0.35">
				
					<path fill="#FFFFFF" stroke="#B0B0B0" stroke-width="4" stroke-linecap="round" stroke-linejoin="round" stroke-miterlimit="10" d="
					M80.0408,163.9471c0,0,81.9552,5.5972,168.7075,6.4031c86.7523,0.8059,94.9978-3.2015,94.9978-3.2015"/>
				
					<path fill="#FFFFFF" stroke="#B0B0B0" stroke-width="4" stroke-linecap="round" stroke-linejoin="round" stroke-miterlimit="10" d="
					M80.0408,178.8263c0,0,28.2153,2.2383,83.4122,4.0513s153.5126-0.5256,153.5126-0.5256"/>
				
					<path fill="#FFFFFF" stroke="#B0B0B0" stroke-width="4" stroke-linecap="round" stroke-linejoin="round" stroke-miterlimit="10" d="
					M80.0408,193.3271c0,0,57.2165,4.0632,99.9275,3.2574"/>
				
					<path fill="#FFFFFF" stroke="#B0B0B0" stroke-width="4" stroke-linecap="round" stroke-linejoin="round" stroke-miterlimit="10" d="
					M80.0408,209.6434c23.3701-0.8059,49.9637,0,49.9637,0"/>
			</g>
			<path opacity="0.09" fill="#1C1C1C" d="M80.0408,204.7618v-48.6569c0,0,65.1184,2.4973,149.3643,2.5322
				c103.8796,0.043,117.1109-2.5322,117.1109-2.5322v14.3523l-36.6207,2.7446l-10.9678,3.0714l7.5646,7.7724l-27.5045,0.4798
				l-27.0598,4.8213l23.5843,8.8123h-53.7627l-28.1042,6.4748l26.994,6.1203H163.453l-23.3776,4.2335l33.2632,4.4407
				l-93.2977,3.1602V204.7618z"/>
			
				<line opacity="0.51" fill="none" stroke="#FCC083" stroke-width="7" stroke-linecap="round" stroke-linejoin="round" stroke-miterlimit="10" x1="8.8489" y1="357.4726" x2="719.4993" y2="357.4726"/>
			<g>
				
					<rect x="346.5161" y="21.9324" fill="#6CA8DC" stroke="#5B689F" stroke-width="5" stroke-linecap="round" stroke-linejoin="round" stroke-miterlimit="10" width="266.0282" height="321.8941"/>
				<path opacity="0.21" fill="#9FD4FC" d="M367.0778,119.4375c1.0923,15.5929,2.819,32.6399,13.8896,43.675
					c0.4657-41.4075,0.9404-82.9424,6.5318-123.9733c10.9648,11.5781,9.7717,29.6244,9.0932,45.5562
					c-1.497,35.1527,2.9603,70.2562,7.4084,105.1585c3.1914,25.0419,6.3828,50.0838,9.5742,75.1257
					c5.6823-25.2886,1.7778-51.5826,0.2961-77.4594c-1.8599-32.4822,0.1519-65.0475,2.1632-97.5207
					c0.7742-12.4991,1.5905-25.2055,5.9177-36.9572c6.5891,12.7091,6.6108,27.6567,7.1438,41.9624
					c1.0641,28.5588,4.7592,57.0191,11.0232,84.9028c0.6445,2.8689,1.848,6.272,4.7368,6.8206
					c12.734-39.3631,2.9412-82.1481,5.8722-123.4157c0.5694-8.0174,2.087-16.8607,8.4112-21.8212
					c0.6223,5.9012,1.2445,11.8028,1.762,17.7141c5.4314,62.0433-0.4754,126.2191,19.6872,185.1456
					c4.7123-64.9049-8.6467-130.833,2.8995-194.8763c8.4659,12.633,8.4264,28.9107,8.3675,44.118
					c-0.1799,46.4312,2.2576,92.8724,7.2971,139.0296c1.9066,17.4632,4.2394,35.1012,10.7182,51.4299
					c2.0499-20.8408-0.284-41.8257-1.9011-62.7045c-2.9385-37.9404-3.5083-76.064-1.7049-114.0752
					c0.8284-17.4604,2.208-35.1488,8.0787-51.6135c13.7766,29.3453,5.8828,63.9944,11.2679,95.9622
					c0.5007,2.9723,1.8485,6.6038,4.8575,6.7794c7.7236-9.3187,10.2097-21.847,11.4511-33.8865
					c1.6092-15.6063,1.5673-31.3824-0.1247-46.9799c-1.1951-11.0169-2.9443-23.1934,3.3684-32.3011
					c6.9785,12.211,6.0326,27.1953,5.2263,41.2366c-3.4072,59.3301-0.6296,119.2032,11.2784,177.4257
					c6.1199-29.7798,2.9898-60.5533,2.6073-90.953c-0.5497-43.6915,4.6716-87.4522,15.4857-129.7878
					c7.293,8.0494,7.0884,20.1717,6.4678,31.0158c-3.4572,60.413-6.5712,121.8912,7.9046,180.6461
					c3.6296-28.7895,3.9974-57.9327,2.2567-86.8978c-0.8126-13.5213-1.9439-27.7953,4.0587-39.9385
					c0.5882,21.1468,1.1764,42.2935,1.7646,63.4403c1.3379,48.099,2.6374,96.682-6.7782,143.8694
					c-8.9977-11.0674-12.1702-25.6563-14.4786-39.7318c-5.2446-31.9789-7.455-64.4546-6.5918-96.8492
					c0.6962,36.8438,0.6085,73.7023-0.2629,110.5423c-0.0717,3.0317-0.2704,6.3694-2.3752,8.5525
					c-7.3712-4.4675-10.7021-13.2749-13.266-21.5041c-9.2333-29.6357-15.1163-60.3137-17.5013-91.2626
					c-0.8764-11.3727-1.6729-23.769-9.3137-32.2381c-4.8065,16.9743-2.2927,35.014-1.3367,52.6298
					c1.3971,25.7432-0.6436,51.6709-6.0509,76.8786c-6.6079-58.6689-8.0825-117.7801-9.5511-176.8016
					c-0.5229,58.8223-1.0458,117.6445-1.5687,176.4668c-0.052,5.8493-0.1606,11.9415-2.8193,17.1519
					c-6.0245-1.8748-8.2404-9.0924-9.496-15.2757c-4.8748-24.006-8.8906-48.1863-12.0371-72.4792
					c0.596,27.1208-3.4828,54.3383-12.0028,80.0931c-8.5402-41.9691-14.0713-84.5501-16.537-127.3082
					c-4.0772,14.5936-3.5502,30.0123-3.4319,45.1643c0.284,36.3815-1.9759,72.7827-6.7577,108.8498
					c-21.1363-39.9865-10.0951-89.0798-19.8074-133.2538c-3.0924,15.0749-4.0027,30.5956-2.6936,45.9286
					c-1.9426-5.0481-2.2731-10.5498-2.5826-15.9499c-1.6707-29.1542-3.3415-58.3085-5.0122-87.4627
					c4.0447,49.8524,4.5925,99.9881,1.6382,149.917c-0.2137,3.612-1.7314,8.4059-5.3322,8.0503
					c-1.6778-0.1657-2.9676-1.5241-3.9827-2.8701c-13.1398-17.4246-6.2409-43.7723-17.8295-62.2649
					c-3.7581,13.198-4.3232,27.2932-1.6337,40.7496c-12.9426-35.574-3.5444-75.737-13.066-112.3753
					c-4.3181,39.608-8.6363,79.216-12.9544,118.824c-10.0476-51.4387-8.6663-104.3355-7.2455-156.7271
					c-2.6964,5.7692-3.8421,12.2543-3.2858,18.5982c-2.2593-19.9069-3.2509-39.9581-2.9721-59.9908
					c0.1361-9.778,0.5742-19.5517,1.3144-29.3026c0.4794-6.3152-0.281-15.6222,2.7518-21.198
					c5.2299,5.0711,5.2626,19.0732,5.8871,26.02C364.8824,83.0124,365.7995,101.257,367.0778,119.4375z"/>
				
					<polyline fill="none" stroke="#9CC1F7" stroke-width="6" stroke-linecap="round" stroke-linejoin="round" stroke-miterlimit="10" points="
					352.3828,27.5232 606.8594,28.5232 606.8594,337.687 				"/>
				
					<line opacity="0.54" fill="none" stroke="#D0F6FC" stroke-width="3" stroke-linecap="round" stroke-linejoin="round" stroke-miterlimit="10" x1="353.2839" y1="27.5232" x2="603.1467" y2="27.5232"/>
				<path opacity="0.47" fill="#4880AA" d="M444.5638,21.9324v139.0164c0,4.7753-6.1194,6.7494-8.9099,2.8742l-20.7105-28.7603
					l-21.9242,30.9119c-2.773,3.9098-8.9305,1.9479-8.9305-2.8455V21.9324H444.5638z"/>
				
					<polygon fill="#D82B09" stroke="#E5304B" stroke-width="5" stroke-linecap="round" stroke-linejoin="round" stroke-miterlimit="10" points="
					386.7504,149.9462 386.7504,16.7075 438.6259,16.9321 438.6259,149.9462 412.6882,102.0611 				"/>
				
					<polyline opacity="0.65" fill="none" stroke="#B20B33" stroke-width="5" stroke-linecap="round" stroke-linejoin="round" stroke-miterlimit="10" points="
					386.7504,149.9462 412.6882,102.0611 438.6259,149.9462 				"/>
			</g>
			<g opacity="0.47">
				<path fill="#4880AA" d="M376.8491,189.7977c0,0-4.6536,50.3017-4.7924,62.6619c-0.2079,18.5187,7.4281,24.2162,7.4281,24.2162
					s13.7661-3.6974,27.7658-3.6974c8.4692,0,172.8498,3.6974,172.8498,3.6974l-2.0001-70.6195l-14.9591-8.2582L376.8491,189.7977z"
					/>
				<polygon fill="#4880AA" points="564.1412,197.7982 564.1412,210.7514 577.1002,216.0571 				"/>
			</g>
			<g>
				
					<path fill="#EAEAEA" stroke="#989999" stroke-width="4" stroke-linecap="round" stroke-linejoin="round" stroke-miterlimit="10" d="
					M377.3491,187.6896c0,0,0.3467,42.3012,0.2079,54.6614c-0.2079,18.5187,7.428,24.2162,7.428,24.2162
					s8.7658-3.6974,22.7655-3.6974c8.4692,0,168.8495,3.6974,168.8495,3.6974v-60.6188l-12.9589-18.2588H377.3491z"/>
				<path opacity="0.19" fill="#989999" d="M563.6412,187.6896l-2.7352,15.0243c-0.5776,3.1729,2.2001,5.9418,5.3712,5.354l0,0
					c3.5515-0.6583,7.059,1.3442,8.2977,4.737l2.0253,5.5474v-12.4039L563.6412,187.6896z"/>
				
					<polygon fill="#FFFFFF" stroke="#B0B0B0" stroke-width="3" stroke-linecap="round" stroke-linejoin="round" stroke-miterlimit="10" points="
					564.6412,187.6896 564.6412,200.6428 577.6002,205.9485 				"/>
				<path fill="#FFFFFF" d="M385.7961,264.2303c2.0113-1.415,4.3999-2.1714,6.7463-2.9075c2.3545-0.7386,4.709-1.4771,7.0636-2.2157
					c-2.9327,0.2258-5.8872-0.4965-8.5496-1.7466c-1.3978-0.6563-2.7373-1.4651-3.863-2.5222
					c-2.3216-2.1803-3.5707-5.2381-4.7528-8.1955c-0.8911-2.2292-1.703-4.4529-1.7704-6.8802
					c-0.6982,3.9108-0.75,7.5941-0.1632,11.5103C380.6756,252.3982,384.5129,265.1332,385.7961,264.2303z"/>
				
					<line fill="#FFFFFF" stroke="#FFFFFF" stroke-width="4" stroke-miterlimit="10" x1="381.1612" y1="192.3774" x2="560.8293" y2="192.3774"/>
			</g>
			<rect x="401.8732" y="209.2852" fill="none" width="166.6152" height="49.3675"/>
			
				<text transform="matrix(1 0 0 1 401.8734 254.0028)" fill="#828282" stroke="#B0B0B0" stroke-miterlimit="10" font-family="'InkiCE'" font-size="58px">Song</text>
			<g opacity="0.38">
				<path fill="#734E31" d="M349.2327,349.2596c6.6473,9.7721,10.0728,21.4666,11.3495,33.2161
					c1.2766,11.7495,0.4977,23.6236-0.6777,35.3836c-0.0867-0.5627-0.1734-1.1255-0.2602-1.6882
					c25.9897,3.5662,51.9311,1.1838,78.0558-1.1992c59.2637-5.4057,118.9349-1.0927,178.288,3.2219
					c0.0715-3.9718,0.1431-7.9436,0.2146-11.9154c2.3406-0.244,4.6812-0.488,7.0218-0.732
					c3.0624-19.7758-2.8488-40.7661-15.7811-56.0376c-1.2427-1.4674-2.6006-2.924-4.3623-3.6948
					c-1.4125-0.618-2.9825-0.7491-4.5198-0.867c-57.1241-4.3807-114.5278-1.4563-171.7449,1.4699
					C400.8912,347.743,375.1578,347.9337,349.2327,349.2596z"/>
			</g>
			<g>
				
					<path fill="#E0E0E0" stroke="#C0C0C2" stroke-width="5" stroke-linecap="round" stroke-linejoin="round" stroke-miterlimit="10" d="
					M356.1665,346.6158c0,0,11.0415,12.371,14.5824,54.8349s-5.4641,95.2388-5.4641,95.2388s58.9716-51.9427,134.3137-70.0181
					c70.9942-17.0324,105.2129-13.8959,105.2129-13.8959s5.6069-28.8209,5.1235-42.1135
					c-0.4835-13.2926-8.8941-24.9659-8.8941-24.9659L356.1665,346.6158z"/>
				<path opacity="0.09" fill="#1C1C1C" d="M380.5048,466.8535c0,0,5.3088-30.0518,4.61-64.4204
					c-0.5955-29.2873-17.6761-62.2942-17.6761-62.2942c25.2922,32.7913,31.7444,64.2362,26.5905,94.8516
					c0,0,215.6276-55.5509,216.1594-40.929s1.1608,3.9669,1.1608,3.9669s-85.0953,8.933-137.8065,23.4948
					S380.5048,466.8535,380.5048,466.8535z"/>
				
					<path fill="none" stroke="#C0C0C2" stroke-width="4" stroke-linecap="round" stroke-linejoin="round" stroke-miterlimit="10" d="
					M373.5846,480.2089c10.3905-9.6387,16.2169-12.5445,28.2886-19.9703c10.5775-6.5067,14.7574-9.3374,21.2364-12.7018
					c5.649-2.9335,15.4736-8.3487,21.4542-10.528c53.4779-19.4871,102.3331-30.7992,159.2492-30.357
					c-0.209-4.8648,1.8389-6.4096,1.6299-11.2744c-27.8428,1.4535-51.8872,4.6685-76.7024,8.6627
					c-45.5682,7.3346-91.4892,14.7608-134.7114,30.9504c1.3835-16.8408,1.3127-34.0097-2.9313-50.3656
					c-3.7778-14.559-15.2669-31.2478-28.5573-39.4949l-6.374,1.4859c17.4181,15.651,21.0142,52.7108,21.1826,65.2194
					C377.6841,436.7272,376.0071,455.4476,373.5846,480.2089z"/>
				<path opacity="0.51" fill="#FFFFFF" d="M390.7752,379.2131c35.3353-11.3075,71.9526-11.6353,108.9731-11.2109
					s74.2188,2.5002,110.9399-2.3267c-1.0029-2.3949-2.0057-4.7898-3.0086-7.1847c-5.1233,3.0956-11.3954,3.2169-17.345,3.1685
					c-33.9044-0.2759-67.7363-3.2746-101.6339-4.0213c-33.8976-0.7468-69.114,0.8051-101.9503,9.4491
					C388.9401,371.2063,390.7752,379.2131,390.7752,379.2131z"/>
				<g opacity="0.46">
					
						<path fill="none" stroke="#C0C0C2" stroke-width="6" stroke-linecap="round" stroke-linejoin="round" stroke-miterlimit="10" d="
						M388.2135,344.493c9.3475,7.0925,14.876,16.5055,17.5542,26.1455c2.6782,9.6401,2.6754,19.5681,2.1604,29.4012"/>
					
						<path fill="none" stroke="#C0C0C2" stroke-width="6" stroke-linecap="round" stroke-linejoin="round" stroke-miterlimit="10" d="
						M410.8081,345.5788c7.1713,6.891,11.0644,15.3528,12.9146,23.8985s1.7656,17.246,1.6765,25.9001"/>
					
						<path fill="none" stroke="#C0C0C2" stroke-width="6" stroke-linecap="round" stroke-linejoin="round" stroke-miterlimit="10" d="
						M431.5968,346.7941c11.4111,12.8669,11.7512,29.1618,11.7217,44.4923c0.3047-0.1912,0.6093-0.3823,0.9139-0.5735"/>
					
						<path fill="none" stroke="#C0C0C2" stroke-width="6" stroke-linecap="round" stroke-linejoin="round" stroke-miterlimit="10" d="
						M530.6769,346.0288c9.4982,10.8262,13.9897,23.941,12.5899,36.7612"/>
					
						<path fill="none" stroke="#C0C0C2" stroke-width="6" stroke-linecap="round" stroke-linejoin="round" stroke-miterlimit="10" d="
						M549.7086,345.1299c9.4821,10.3189,10.0476,23.5273,10.2029,35.9536"/>
					
						<path fill="none" stroke="#C0C0C2" stroke-width="6" stroke-linecap="round" stroke-linejoin="round" stroke-miterlimit="10" d="
						M567.4941,345.9041c7.5124,9.8721,10.5333,21.5253,8.4837,32.7256"/>
				</g>
				<path opacity="0.1" fill="#5B5B5B" d="M371.5844,342.9016l229.3325-0.1869c0,0,2.7749,3.0132,6.9426,10.5729
					c3.2468,5.8894-55.001,0.5022-124.794,0s-102.0214,8.6741-102.0214,8.6741S377.441,350.4663,371.5844,342.9016z"/>
				<g>
					<g>
						<path fill="#FFFFFF" d="M395.4058,372.964c15.7566-2.1207,31.2692-5.3509,47.1328-6.9475
							c16.1154-1.6219,32.3336-2.3018,48.529-2.1157c32.1857,0.3699,64.0764,5.3803,96.3344,3.294
							c1.9675-0.1273,1.9328-3.5165-0.0662-3.5069c-16.3796,0.079-32.6381,0.2507-48.9982-0.9177
							c-16.1496-1.1534-32.2122-2.8477-48.4143-3.1655c-15.9947-0.3137-31.9991,0.3894-47.9149,2.001
							c-15.6413,1.5837-32.1632,3.5585-47.2529,8.1054C392.7251,370.3229,393.266,373.252,395.4058,372.964L395.4058,372.964z"/>
					</g>
				</g>
			</g>
			<path opacity="0.24" fill="#965927" d="M131.3633,233.969c0,0,59.5751,3.2681,72.534,3.2681
				c12.959,0,52.4245,9.1837,85.1447,13.5034c32.7202,4.3197,57.4741,2.4684,57.4741,2.4684v10.6218h-15.4975l15.4975,18.3816
				v-44.9751L131.3633,233.969z"/>
			<path opacity="0.15" fill="#1C1C1C" d="M79.4367,222.4823c5.6141-0.2987,8.228-0.5973,13.8421-0.896
				c-3.6815,0.7467-7.1319-3.4513-6.2683-7.1071c0.8635-3.6559,5.016-5.9256,8.7346-5.3933
				c-4.6251,1.2917-9.9631-2.391-10.3977-7.1733s4.1523-9.3669,8.9344-8.93c-2.8275,1.4152-6.6115-0.1987-7.9162-3.0789
				s-0.2781-6.5055,2.0708-8.6221s5.7715-2.8051,8.8809-2.231c-4.7206,1.8874-10.7306-2.046-10.8902-7.1274
				s5.5915-9.3844,10.4213-7.7971c-4.093,0.4712-8.3662-0.9672-11.3411-3.8176c1.381-2.8858,4.7905-5.6475,7.9433-5.104
				l-13.4097-1.0996L79.4367,222.4823z"/>
			<g>
				<path opacity="0.24" fill="#104C1D" d="M100.2898,137.6146c3.9108,0.2997,7.8217,0.5993,11.7325,0.899
					c-5.4136-14.3214-10.8272-28.6427-16.2408-42.9641c-1.3749-3.6373-4.0732-7.3823-6.4954-3.7329
					c-1.5291,2.3039,0.8927,12.5896,1.2233,15.4013C91.761,117.862,94.2092,128.6033,100.2898,137.6146z"/>
				<path opacity="0.24" fill="#104C1D" d="M122.7011,137.6146c3.9108,0.2997,7.8217,0.5993,11.7325,0.899
					c-5.4136-14.3214-10.8272-28.6427-16.2408-42.9641c-1.3749-3.6373-4.0732-7.3823-6.4954-3.7329
					c-1.5291,2.3039,0.8927,12.5896,1.2233,15.4013C114.1724,117.862,116.6206,128.6033,122.7011,137.6146z"/>
				<path opacity="0.24" fill="#104C1D" d="M141.9355,137.1287c3.9108,0.2997,7.8217,0.5993,11.7325,0.899
					c-5.4136-14.3214-10.8272-28.6427-16.2408-42.9641c-1.3749-3.6373,0.9271-7.3823-1.495-3.7329
					c-1.5291,2.3039-0.1074,15.5898,0.2233,18.4014C137.407,120.3763,135.855,128.1174,141.9355,137.1287z"/>
			</g>
			<g>
				<path opacity="0.24" fill="#104C1D" d="M166.9322,138.3636c3.9108,0.2997,7.8217,0.5993,11.7325,0.899
					c-5.4136-14.3214-10.8272-28.6427-16.2408-42.9641c-1.3749-3.6373-1.0731-7.3823-3.4952-3.7329
					c-1.5291,2.3039,0.8927,12.5896,1.2233,15.4013C161.4036,118.611,160.8516,129.3523,166.9322,138.3636z"/>
				<path opacity="0.24" fill="#104C1D" d="M189.3435,138.3636c3.9108,0.2997,7.8217,0.5993,11.7325,0.899
					c-5.4136-14.3214-10.8272-28.6427-16.2408-42.9641c-1.3749-3.6373-1.073-7.3823-3.4952-3.7329
					c-1.5291,2.3039,1.8928,13.5897,2.2234,16.4013C184.815,119.6111,183.2629,129.3523,189.3435,138.3636z"/>
				<path opacity="0.24" fill="#104C1D" d="M210.578,137.8777c3.9108,0.2997,7.8217,0.5993,11.7325,0.899
					c-5.4136-14.3214-10.8272-28.6427-16.2408-42.9641c-1.3749-3.6373,0.9271-7.3823-1.4951-3.7329
					c-1.5291,2.3039,0.8927,12.5896,1.2233,15.4013C207.0496,118.1251,204.4975,128.8664,210.578,137.8777z"/>
			</g>
			<g>
				<path opacity="0.24" fill="#104C1D" d="M237.1763,139.8803c3.9108,0.2997,7.8217,0.5993,11.7325,0.899
					c-5.4136-14.3214-10.8272-28.6427-16.2408-42.9641c-1.3749-3.6373-4.0732-7.3823-6.4954-3.7329
					c-1.5291,2.3039,2.8928,13.5897,3.2234,16.4013C230.6476,121.1278,231.0957,130.869,237.1763,139.8803z"/>
				<path opacity="0.24" fill="#104C1D" d="M259.5876,139.8803c3.9108,0.2997,7.8217,0.5993,11.7325,0.899
					c-5.4136-14.3214-10.8272-28.6427-16.2408-42.9641c-1.3749-3.6373-4.0732-7.3823-6.4954-3.7329
					c-1.5291,2.3039,5.6576,17.3675,5.9882,20.1791C255.8237,124.9056,253.507,130.869,259.5876,139.8803z"/>
				<path opacity="0.24" fill="#104C1D" d="M280.8221,139.3944c3.9108,0.2997,7.8217,0.5993,11.7325,0.899
					c-5.4136-14.3214-10.8272-28.6427-16.2408-42.9641c-1.3749-3.6373-4.0732-7.3823-6.4954-3.7329
					c-1.5291,2.3039,5.3631,18.8171,5.6937,21.6288C276.7638,125.8694,274.7416,130.3831,280.8221,139.3944z"/>
			</g>
			<g>
				<path opacity="0.24" fill="#104C1D" d="M307.1659,141.1725c3.9108,0.2997,7.8217,0.5993,11.7325,0.899
					c-5.4136-14.3214-10.8272-28.6427-16.2408-42.9641c-1.3749-3.6373-4.0732-7.3823-6.4954-3.7329
					c-1.5291,2.3039,6.0791,18.919,6.4097,21.7307C303.8235,127.7494,301.0854,132.1612,307.1659,141.1725z"/>
				<path opacity="0.24" fill="#104C1D" d="M329.5773,141.1725c3.9108,0.2997,7.8217,0.5993,11.7325,0.899
					c-5.4136-14.3214-10.8272-28.6427-16.2408-42.9641c-1.3749-3.6373-4.0732-7.3823-6.4954-3.7329
					c-1.5291,2.3039,4.6237,17.039,4.9543,19.8507C324.7794,125.8694,323.4967,132.1612,329.5773,141.1725z"/>
			</g>
			<polygon opacity="0.31" fill="#FFC880" points="134.4336,246.4154 211.8934,246.4154 289.0421,260.8872 134.4336,260.8872 			"/>
			<polygon opacity="0.31" fill="#FFC880" points="144.4525,275.1141 302.5719,274.5087 329.8198,302.8539 329.8198,333.2594 
				144.4525,334.7615 			"/>
			<path opacity="0.2" fill="#1C1C1C" d="M343.2887,111.8012c1.1415-0.4516-4.7174,2.097-3.5759,1.6453
				c0.8534,4.3259-0.1501,10.8399-4.5258,10.2965c-1.089-0.1352-2.0492-0.7702-2.8973-1.4666
				c-2.9847-2.4512-5.1224-5.9149-5.975-9.6819c3.6361,4.5298,4.7648,10.9518,2.8911,16.45
				c-5.5584-1.2223-10.0734-6.2209-10.7257-11.8745c1.3163,2.0393,2.6822,4.2485,2.601,6.6744s-2.3531,4.9073-4.6841,4.2306
				c-0.9997-0.2902-1.7722-1.0702-2.4663-1.846c-3.1607-3.5325-5.7036-7.6163-7.4793-12.0113
				c0.959,3.4792,1.1232,7.1749,0.4765,10.7254c-5.8681-2.3549-10.7377-7.096-13.2487-12.899
				c1.9905,3.1064,2.6644,7.0275,1.8252,10.6202c-5.0721-1.5456-9.342-5.5251-11.2404-10.476
				c1.9157,2.4435,3.9454,5.3256,3.3361,8.3701c-0.9008,4.5012-7.2779,5.8718-11.2169,3.5145
				c-3.939-2.3572-5.9384-6.879-7.7006-11.1177c2.0074,2.1146,4.1733,4.9296,3.1229,7.6495
				c-1.1745,3.0413-5.7752,3.2795-8.2905,1.2055c-2.5154-2.0741-3.4584-5.451-4.2671-8.6093
				c1.7784,2.4758,3.6401,5.5742,2.4361,8.3747c-1.3695,3.1855-6.0758,3.5982-8.9554,1.6665
				c-2.8796-1.9317-4.3598-5.3166-5.6932-8.5174c3.5706,2.0569,1.2664,8.5949-2.8514,8.7475
				c-4.1178,0.1526-7.1911-4.6223-6.3408-8.6542c1.8254,2.6027,3.6016,6.3503,1.4023,8.6458
				c-2.3153,2.4166-6.4985,0.3659-8.4501-2.3529c-1.9516-2.7188-3.2796-6.2271-6.3352-7.5925
				c2.7926,3.1493,2.7733,8.4092-0.0425,11.5378c-3.7804-3.6457-6.6849-8.1937-8.4024-13.1569
				c3.4809,3.0576,4.971,8.1984,3.665,12.6436c-5.6763-4.0088-10.926-8.6215-15.6317-13.7349
				c3.9581,2.0478,1.3468,9.1575-3.1055,9.3502s-7.9088-4.3677-8.2924-8.8076c1.2485,2.6482,2.5288,5.4813,2.1557,8.3852
				c-0.373,2.9039-3.149,5.6933-5.9769,4.9352c-1.2707-0.3406-2.2744-1.2959-3.1712-2.2585
				c-3.1663-3.3989-5.7483-7.3408-7.599-11.6015c1.4808,2.4782,3.0109,5.1378,2.9118,8.023
				c-0.0991,2.8852-2.5959,5.8745-5.435,5.351c-1.1182-0.2062-2.0818-0.9018-2.9358-1.6525
				c-3.2373-2.8459-5.4879-6.7937-6.2875-11.0293c1.4537,2.0515,2.9571,4.2332,3.1789,6.7377
				c0.2218,2.5046-1.3837,5.3568-3.8911,5.5445c-2.4539,0.1837-4.3306-2.0682-5.6714-4.1316
				c-2.1436-3.299-4.0995-6.72-5.8552-10.2408c1.6535,4.2385,2.076,10.8528-2.4185,11.5584
				c-2.7502,0.4318-5.0576-2.1621-6.0837-4.75s-1.4367-5.5188-3.2397-7.64c1.7361,4.8597,3.4722,9.7194,5.2083,14.5791
				c-3.1075,1.1229-6.6702-0.5511-8.7475-3.1205c-2.0773-2.5694-3.0002-5.8564-3.8729-9.0431
				c1.3682,2.9185,2.769,6.0036,2.5226,9.2174c-0.2464,3.2138-2.7921,6.4942-6.0113,6.3317
				c-3.0271-0.1528-5.1514-3.1271-6.0102-6.0338c-0.8588-2.9067-0.9557-6.0571-2.3054-8.771
				c0.7216,2.5524,0.9515,5.2428,0.6734,7.8806c-5.3385,0.025-10.4946-3.6461-12.2178-8.6989
				c3.0689,5.3066,1.59,12.7848-3.2678,16.5237c-2.9265-8.196-13.2879-12.8049-21.3346-9.49l-1.1594,24.0272
				c0,0,81.814,8.2097,134.8298,7.9622s123.1068,0,123.1068,0L343.2887,111.8012z"/>
			
				<line fill="none" stroke="#F98A9F" stroke-width="5" stroke-linecap="round" stroke-linejoin="round" stroke-miterlimit="10" x1="432.866" y1="21.1357" x2="392.0468" y2="21.1357"/>
			
				<line opacity="0.46" fill="none" stroke="#5B689F" stroke-width="6" stroke-linecap="round" stroke-linejoin="round" stroke-miterlimit="10" x1="351.2328" y1="30.635" x2="352.3828" y2="339.689"/>
			<g opacity="0.5">
				<g>
					<path fill="#CEB2F7" d="M85.9555,147.0347c-4.4962-0.662-8.8867-0.6905-13.4156-0.2165
						c-0.8738,0.0915-1.6427,0.9526-1.7073,1.8149c-0.9928,13.2496-0.4153,26.5793-0.2981,39.8516
						c0.0556,6.296,0.041,12.5936-0.172,18.8867c-0.2501,7.3886-1.5177,14.9314-1.3281,22.2961
						c0.0603,2.3417,3.5935,2.9868,4.1691,0.5689c1.6147-6.7827,1.5562-14.2217,1.8185-21.1746
						c0.2486-6.59,0.2752-13.1841,0.1898-19.7776c-0.1739-13.4191-0.2521-26.826-0.3113-40.2451
						c-0.5691,0.605-1.1382,1.2099-1.7073,1.8149c4.1416-0.4564,8.3465-0.4724,12.5072-0.6335
						C87.4881,150.1514,87.7939,147.3054,85.9555,147.0347L85.9555,147.0347z"/>
				</g>
			</g>
			<g opacity="0.67">
				<g>
					<g>
						<path fill="#58456E" d="M78.7702,155.5719c34.279,2.6855,68.9087,2.9115,103.2767,2.9762
							c34.0629,0.0641,68.1239-0.4889,102.1771-1.2601c19.4616-0.4408,38.9245-0.8886,58.3828-1.4609
							c2.9475-0.0867,3.2543-4.6828,0.2787-4.6099c-67.9015,1.6617-135.795,3.7197-203.7253,2.5484
							c-20.0656-0.346-40.1171-1.1729-60.1772-1.586C76.799,152.1346,76.5811,155.4004,78.7702,155.5719L78.7702,155.5719z"/>
					</g>
				</g>
				<g>
					<g>
						<path fill="#58456E" d="M76.7936,156.3784c1.2873,22.6533,1.5366,44.8802-0.5972,67.5026
							c-0.2663,2.8234,4.0623,3.0648,4.3749,0.2744c2.5152-22.4525,2.8224-45.7952-0.3057-68.2047
							C79.9901,153.9769,76.6808,154.3947,76.7936,156.3784L76.7936,156.3784z"/>
					</g>
				</g>
				<g>
					<g>
						<path fill="#58456E" d="M80.7848,225.9704c14.7329-2.0396,29.7368-2.2728,44.5847-2.7335
							c16.8799-0.5237,33.7494-0.8712,50.6365-1.0569c34.2754-0.3768,68.4019-1.509,102.6808-0.5276
							c19.8486,0.5683,39.6975,1.1267,59.5466,1.6795c3.1854,0.0887,2.9165-4.8574-0.2475-4.9404
							c-35.7783-0.9385-71.7114-2.8612-107.5014-1.9767c-33.8127,0.8357-67.7008,0.8975-101.4862,2.4606
							c-16.3242,0.7553-32.708,1.1633-48.8546,3.8879C78.0543,223.1161,78.716,226.2568,80.7848,225.9704L80.7848,225.9704z"/>
					</g>
				</g>
			</g>
			<g opacity="0.81">
				<g>
					<path fill="#FFFFFF" d="M167.6343,178.6132c25.5684,1.4289,51.2299,1.5504,76.8321,1.8275
						c26.0223,0.2817,52.1564,0.7506,78.1697-0.1445c4.369-0.1503,3.9812-6.7423-0.3379-6.7433
						c-25.7479-0.0055-51.5035,0.8084-77.2554,0.8721c-25.7365,0.0637-51.4747-0.6109-77.208-0.4623
						C165.2059,173.978,164.9731,178.4645,167.6343,178.6132L167.6343,178.6132z"/>
				</g>
			</g>
			<g opacity="0.81">
				<g>
					<path fill="#FFFFFF" d="M152.1583,191.5019c10.1824,2.1224,21.0293,2.1135,31.3944,2.3331
						c10.1311,0.2146,20.2654,0.1721,30.3977,0.0871c20.9229-0.1757,41.9247,0.0022,62.8331-0.8041
						c4.3904-0.1693,3.6725-6.6712-0.5843-6.7087c-20.6503-0.1822-41.3593,0.6158-62.0059,1.0351
						c-10.6029,0.2153-21.2101,0.4321-31.8156,0.3175c-10.0755-0.1088-20.2084-1.0263-30.2743-0.7923
						C149.3451,187.0336,149.8122,191.0129,152.1583,191.5019L152.1583,191.5019z"/>
				</g>
			</g>
			<g opacity="0.81">
				<g>
					<path fill="#FFFFFF" d="M121.3297,205.6462c17.2601,0.832,34.5106,1.6214,51.7897,1.9685
						c8.508,0.1709,17.017,0.309,25.5265,0.3823c8.3055,0.0715,17.2868,0.9999,25.5057-0.1849
						c3.2359-0.4664,4.2421-5.6169,0.4926-6.1517c-7.9717-1.1372-16.4662-0.3444-24.5167-0.3884
						c-8.884-0.0486-17.7679-0.0991-26.6516-0.1875c-17.1839-0.1712-34.3724-0.1848-51.555-0.4314
						C118.7375,200.6073,118.0621,205.4887,121.3297,205.6462L121.3297,205.6462z"/>
				</g>
			</g>
			<g opacity="0.81">
				<g>
					<path fill="#FFFFFF" d="M219.6939,167.2165c31.2351,2.7377,62.289,2.4241,93.5251-0.4794
						c4.3643-0.4057,3.7699-7.195-0.5904-6.7788c-30.7337,2.9333-61.8776,3.622-92.7319,2.5555
						C217.2274,162.4216,217.0223,166.9823,219.6939,167.2165L219.6939,167.2165z"/>
				</g>
			</g>
			<g opacity="0.81">
				<g>
					<path fill="#FFFFFF" d="M93.3097,90.9035c0.4522,5.3742,2.9584,11.0502,5.2446,15.8904
						c1.6488,3.4908,7.0301,1.17,5.5108-2.4024c-2.0346-4.7841-3.4997-10.1882-5.9635-14.7476
						C96.944,87.5017,93.092,88.3177,93.3097,90.9035L93.3097,90.9035z"/>
				</g>
			</g>
			<g opacity="0.81">
				<g>
					<path fill="#FFFFFF" d="M116.7815,91.5692c0.7993,2.5524,1.7812,5.0217,2.821,7.4852c1.0282,2.436,1.9217,5.0838,3.5323,7.1961
						c1.784,2.3397,5.9517,0.6122,5.3761-2.3437c-0.4982-2.5588-1.8231-4.9106-2.9353-7.2552
						c-1.1562-2.4374-2.3505-4.8297-3.7445-7.1404C120.2773,86.9353,115.8257,88.5169,116.7815,91.5692L116.7815,91.5692z"/>
				</g>
			</g>
			<g opacity="0.81">
				<g>
					<path fill="#FFFFFF" d="M138.9342,91.2481c0.4079,2.7787,1.364,5.4706,2.2561,8.1255
						c0.6813,2.0278,1.2151,4.9164,3.1291,6.1584c1.1446,0.7428,2.8006,1.1069,3.9675,0.1141
						c0.075-0.0638,0.1499-0.1276,0.2249-0.1914c0.9264-0.7882,1.5596-2.1397,1.0184-3.3532
						c-1.7934-4.0213-3.0694-8.5203-5.3336-12.3472C142.7133,87.2471,138.4457,87.9201,138.9342,91.2481L138.9342,91.2481z"/>
				</g>
			</g>
			<g opacity="0.81">
				<g>
					<path fill="#FFFFFF" d="M162.7941,91.8211c0.0305,2.8226,0.7809,5.5143,1.6915,8.1749
						c0.798,2.3315,1.6485,5.0375,3.5178,6.7009c1.9402,1.7265,5.1852,0.178,5.0352-2.4263
						c-0.1343-2.3328-1.4771-4.4779-2.331-6.631c-0.8686-2.1902-1.5106-4.509-2.5924-6.6043
						C166.9907,88.8571,162.7616,88.8045,162.7941,91.8211L162.7941,91.8211z"/>
				</g>
			</g>
			<g opacity="0.81">
				<g>
					<path fill="#FFFFFF" d="M186.0781,91.5922c0.1452,4.585,1.76,10.4462,5.032,13.7827c2.2776,2.3225,5.8136-0.5364,5.0126-3.3098
						c-0.5739-1.9871-1.8386-3.7964-2.6414-5.7141c-0.8034-1.9192-1.4732-3.8902-2.2831-5.8065
						C190.1817,88.1392,185.9934,88.9174,186.0781,91.5922L186.0781,91.5922z"/>
				</g>
			</g>
			<g opacity="0.81">
				<g>
					<path fill="#FFFFFF" d="M209.3692,93.429c-0.4832-1.8666,0.1035,0.2994,0.1786,0.6109
						c0.1657,0.6876,0.408,1.3631,0.6366,2.0325c0.3477,1.0181,0.7554,1.9981,1.2264,2.965
						c1.1493,2.3589,2.1433,4.8043,4.8281,5.5792c1.4025,0.4048,3.1019-0.74,3.3269-2.1584
						c0.3733-2.3528-0.9713-3.9154-2.0197-5.8963c-0.8746-1.6526-1.6236-3.3677-2.4229-5.0565
						C213.677,88.4498,208.4893,90.0296,209.3692,93.429L209.3692,93.429z"/>
				</g>
			</g>
			<g opacity="0.81">
				<g>
					<path fill="#FFFFFF" d="M231.4737,92.1818c0.1432,4.4165,2.5716,10.4013,5.9084,13.3349
						c2.5179,2.2137,5.665-1.1243,4.7137-3.7777c-0.6716-1.8734-2.0185-3.5816-2.8944-5.39
						c-0.881-1.8192-1.488-3.7779-2.4271-5.5606C235.4746,88.321,231.383,89.3849,231.4737,92.1818L231.4737,92.1818z"/>
				</g>
			</g>
			<g opacity="0.81">
				<g>
					<path fill="#FFFFFF" d="M253.7122,93.6104c0.2204,1.9808,0.8456,3.8369,1.5881,5.6783
						c0.9725,2.4119,1.7685,4.7869,3.8867,6.3852c1.7477,1.3188,4.4391-0.4901,4.356-2.5031
						c-0.0838-2.0315-1.1777-3.6524-2.0104-5.4599c-0.8837-1.9183-1.5579-3.9454-2.6047-5.7843
						C257.5541,89.5133,253.404,90.841,253.7122,93.6104L253.7122,93.6104z"/>
				</g>
			</g>
			<g opacity="0.81">
				<g>
					<path fill="#FFFFFF" d="M277.8891,93.7899c0.4241,4.799,2.2882,11.3425,6.5039,14.1656
						c2.2008,1.4738,5.3091-0.9901,4.5475-3.4679c-0.6547-2.1301-2.1839-3.8563-3.169-5.8546
						c-0.9688-1.9654-1.7203-4.0608-2.3527-6.1555C282.4593,89.2997,277.6104,90.6351,277.8891,93.7899L277.8891,93.7899z"/>
				</g>
			</g>
			<g opacity="0.81">
				<g>
					<path fill="#FFFFFF" d="M300.7804,94.505c0.254,2.1868,0.8138,4.0824,1.7106,6.0937c0.9706,2.1767,2.6352,5.5337,5.3937,5.347
						c1.6448-0.1113,3.0139-1.4342,3.1191-3.1039c0.0953-1.5136-1.0221-2.617-1.7535-3.8262
						c-1.0721-1.7726-1.9314-3.6206-2.6703-5.5528C305.44,90.482,300.3718,90.9867,300.7804,94.505L300.7804,94.505z"/>
				</g>
			</g>
			<g opacity="0.81">
				<g>
					<path fill="#FFFFFF" d="M323.4529,94.0897c0.3143,2.0533,1.0201,4.0448,1.7744,5.9741c0.7517,1.9226,1.528,4.475,3.7223,5.0772
						c1.4387,0.3949,3.0941-0.039,3.6575-1.5945c0.8153-2.251-0.4352-3.932-1.3938-5.8995
						c-0.8657-1.7767-1.6315-3.6066-2.572-5.3451C327.1392,89.5253,322.9791,90.994,323.4529,94.0897L323.4529,94.0897z"/>
				</g>
			</g>
			<g opacity="0.56">
				<g>
					<path fill="#FCC083" d="M140.3047,253.3482c11.6304,3.1397,24.5334,3.0165,36.5073,3.2481
						c6.5315,0.1263,13.0787-0.2232,19.6114-0.2924c6.441-0.0682,13.0635,0.5228,19.4588-0.3587
						c4.03-0.5555,3.8541-6.441-0.0851-7.0193c-6.399-0.9396-13.0169-0.4647-19.4726-0.7811
						c-6.1968-0.3037-12.3781-0.9241-18.574-1.189c-12.2785-0.525-25.2153-1.8047-37.41,0.0468
						C136.9727,247.5138,137.3393,252.5476,140.3047,253.3482L140.3047,253.3482z"/>
				</g>
			</g>
			<g opacity="0.56">
				<g>
					<path fill="#FCC083" d="M149.0332,283.0884c12.7353,2.6953,26.912,1.6946,39.8717,1.6877
						c13.3913-0.0071,26.7704-0.2982,40.1602-0.5163c21.29-0.3467,42.7463,0.3026,64.0108-0.7225
						c4.1949-0.2022,4.0077-6.9247-0.0885-7.2983c-20.8961-1.9054-42.0867-0.3646-63.032-0.7268
						c-12.9646-0.2242-25.9218-0.545-38.8875-0.5682c-13.6465-0.0244-28.4526-1.1159-41.8702,1.614
						C145.5888,277.2923,145.2274,282.283,149.0332,283.0884L149.0332,283.0884z"/>
				</g>
			</g>
		</g>
	</g>
	<g opacity="0.58">
		<path fill="#7C482E" d="M89.2371,272.4394c5.0806,15.0689,6.8402,31.2477,5.1177,47.0565
			c-1.1281-0.4915-1.6996,1.3058-1.9187,2.5168c-0.7986,4.415-6.485,6.4332-10.7508,5.0427s-7.346-5.0259-10.1905-8.4956
			c-1.8501,2.8667-0.9394,6.6161-1.2166,10.0168c-0.2771,3.4006-3.445,7.292-6.465,5.7043
			c-1.1839-0.6224-1.8475-1.8979-2.4393-3.0974c-1.6351-3.3142-3.2702-6.6285-4.9053-9.9427
			c0.6537,2.6261,1.3082,5.386,0.6257,8.0048c-0.6824,2.6187-3.1928,4.9744-5.8549,4.4879
			c-1.4452-0.2641-2.6313-1.2798-3.6415-2.3465c-2.7381-2.8909-4.7537-6.461-5.8147-10.2988
			c-0.0347,4.7285-0.0694,9.4571-0.1041,14.1856c-6.9185-1.8904-12.5477-7.8758-14.0104-14.8971
			c1.6709,6.4327,0.9514,13.4576-1.9888,19.418c-1.6951-3.3805-3.3901-6.761-5.0852-10.1414
			c0.2725,6.8011,0.993,13.5843,2.1552,20.2909c107.1329-0.6838,214.2659-1.3676,321.3988-2.0514
			c0.2991-2.0945,0.5983-4.1889,0.8974-6.2834c-71.8943,1.9062-143.8491,1.5312-215.7197-1.1245
			c-0.807-26.0955-2.9987-48.071-0.807-71.737c7.8242-0.0201,12.1979-0.3501,19.6864-2.6174
			c-5.8938-2.425-11.7877-4.8501-17.6815-7.2751c0.3463-7.998,0.6926-15.996,1.0388-23.994
			c64.4498,5.0949,129.2235-8.5285,193.7318-4.237c-22.4114-5.9067-45.5658-8.9883-68.742-9.1488
			c-47.3588-0.3281-94.6823,11.4592-141.7308,6.0374c4.4042,1.4477,8.8084,2.8954,13.2125,4.3431
			c-0.2444,7.3039,0.2639,14.6327,1.514,21.8329c-3.4546-1.8831-7.671-1.3267-11.5583-0.7184
			c-12.8114,2.0047-29.7308,1.7813-41.6509,6.8893C60.3341,266.7182,81.4779,272.6266,89.2371,272.4394z"/>
	</g>
	<g opacity="0.58">
		<path fill="#7C482E" d="M53.122,342.1207c5.106,4.2599,13.6336,3.476,17.8773-1.6435c1.2441,3.3662,4.6601,5.8095,8.2478,5.8992
			c3.5876,0.0897,7.1215-2.1798,8.5323-5.4797c1.3462,1.8486,3.1805,3.3385,5.2659,4.277c1.3788-0.2737,1.8854-2.403,0.7775-3.2683
			c13.2933-0.3112,26.5865-0.6223,39.8798-0.9335c1.2013-0.0281,2.8219,1.3828,1.7174,1.8561
			c9.1886-1.3344,18.5143,0.2473,27.7883,0.6994c10.3387,0.5041,20.6861-0.4006,31.0259-0.8802
			c49.6048-2.3012,99.7007,5.1599,148.7818-2.3892c0.8543-3.8932,1.7086-7.7864,2.563-11.6797
			c-0.2636,5.9004,0.5134,11.8459,2.2843,17.4805c3.6885-0.6277,7.4911-0.5786,11.1621,0.1441
			c-1.9182,1.5732-4.5341,1.9156-7.0013,2.1746c-38.4649,4.0375-77.2635,2.6269-115.929,1.7119
			c-53.7367,0-107.3804-1.5775-161.1334-0.3581c-15.2545,0.346-30.9987,2.0453-46.1892,1.28
			C25.1094,334.0784,53.0321,353.3721,53.122,342.1207z"/>
	</g>
	<g opacity="0.36">
		<g>
			<g>
				<path fill="#F9D6B7" d="M43.5727,284.6979c8.0593-2.4983,23.1837-3.4276,26.6727,6.6932
					c0.7646,2.218,4.2784,1.6342,3.6802-0.7791c-3.0608-12.3461-22.5522-13.9421-31.9103-8.7822
					C40.3083,282.771,41.9063,285.2144,43.5727,284.6979L43.5727,284.6979z"/>
			</g>
		</g>
		<g>
			<g>
				<path fill="#F9D6B7" d="M47.5189,291.4337c1.7418-2.7546,5.0931-2.9369,8.0849-2.7057c2.9714,0.2296,4.265,1.8624,5.9191,4.1732
					c1.4523,2.029,4.5379-0.0194,3.2281-2.1524c-2.6604-4.3324-5.7713-6.0373-10.8201-5.9073
					c-3.9742,0.1023-8.2448,1.2966-9.4947,5.5127C43.8671,292.274,46.5913,292.9007,47.5189,291.4337L47.5189,291.4337z"/>
			</g>
		</g>
		<g>
			<g>
				<path fill="#F9D6B7" d="M53.3344,294.3096c2.5675,0,2.2-3.9704-0.3458-3.9704
					C50.4211,290.3392,50.7886,294.3096,53.3344,294.3096L53.3344,294.3096z"/>
			</g>
		</g>
		<g>
			<g>
				<path fill="#F9D6B7" d="M64.0702,278.478c2.5814,0.7881,5.0223,2.1246,7.1058,3.8444c1.9813,1.6355,3.2283,3.6239,4.8248,5.5793
					c1.2285,1.5047,3.7855,0.2913,3.0839-1.6465c-2.0718-5.7222-8.392-9.5024-14.022-10.7816
					C63.1135,275.0308,62.0868,277.8725,64.0702,278.478L64.0702,278.478z"/>
			</g>
		</g>
		<g>
			<g>
				<path fill="#F9D6B7" d="M37.9144,282.1346c1.0878-0.5605,2.3619-1.0684,3.1973-1.997c0.4884-0.5428,0.5913-1.4797,0.1548-2.0891
					c-0.458-0.6394-1.2103-0.9126-1.9726-0.7051c-1.1015,0.2998-2.0913,1.1488-2.9978,1.8109
					c-0.6893,0.5034-0.8805,1.4527-0.4794,2.1897C36.1842,282.0195,37.1569,282.525,37.9144,282.1346L37.9144,282.1346z"/>
			</g>
		</g>
		<g>
			<g>
				<path fill="#F9D6B7" d="M78.4068,280.0391c1.8501,2.0732,3.6064,4.3388,5.587,6.2822c1.5722,1.5427,3.9283-0.2957,2.6794-2.1672
					c-1.6274-2.4389-3.8793-4.6615-5.9967-6.6768C79.0472,275.9264,76.977,278.437,78.4068,280.0391L78.4068,280.0391z"/>
			</g>
		</g>
		<g>
			<g>
				<path fill="#F9D6B7" d="M42.6816,270.3093c7.9263-3.9966,15.4674-6.339,24.3733-7.1109
					c2.4235-0.2101,2.541-3.8988,0.0285-3.8443c-9.248,0.2008-18.5472,3.0644-26.1839,8.2907
					C39.3752,268.6879,41.0898,271.1119,42.6816,270.3093L42.6816,270.3093z"/>
			</g>
		</g>
		<g>
			<g>
				<path fill="#F9D6B7" d="M25.0522,285.72c-5.4782,11.2401-7.2461,25.2915-3.4921,37.3495
					c0.6934,2.2272,3.7559,1.3482,3.4407-0.8797c-1.7399-12.2968-1.2293-23.3858,3.0695-35.1506
					C28.7941,285.0583,25.9879,283.8,25.0522,285.72L25.0522,285.72z"/>
			</g>
		</g>
	</g>
	<g opacity="0.15">
		<path fill="#F9BF80" d="M31.8071,466.4665c2.8085,0.0031,5.6169,0.0063,8.4254,0.0094
			c-0.5489-3.4713-0.3338-7.0614,0.6256-10.4424c1.9572,0.4516,2.285,3.0821,2.0719,5.0794s-0.2618,4.5385,1.5479,5.4102
			c0.6614,0.3186,1.4269,0.3102,2.1609,0.2953c3.5047-0.0711,7.0093-0.1422,10.514-0.2132c0.5759-1.4341,0.323-3.0466,0.1461-4.5819
			c-0.1769-1.5353-0.2342-3.2146,0.6435-4.4867c0.8776-1.2721,3.0428-1.6978,3.9203-0.4257c0.338,0.49,0.4156,1.1079,0.4835,1.6993
			c0.2916,2.5377,0.5832,5.0753,0.8748,7.613c4.4613-0.3459,8.9417-0.4455,13.414-0.2982
			c-0.2034-2.2093-0.4067-4.4185-0.6101-6.6278c-0.0854-0.9277-0.1404-1.9617,0.4487-2.6833
			c1.3744-1.6833,4.1525,0.3302,4.5727,2.4623c0.4202,2.1321-0.0671,4.5802,1.2535,6.3061
			c1.6584,2.1674,4.9729,1.7761,7.6335,1.1687c0.1355-9.2946-0.1114-18.5948-0.74-27.8692
			c-3.4136-0.781-6.7848-1.7473-10.0938-2.8931c1.3479,4.9532,1.1303,10.3201-0.6142,15.1479
			c-0.9393-4.4379-1.8786-8.8757-2.8179-13.3136c-0.1175-0.5551-0.2517-1.1423-0.6492-1.5471
			c-0.3917-0.3988-0.9658-0.5456-1.5094-0.6757c-3.8351-0.9179-7.6703-1.8358-11.5054-2.7537
			c0.6799,4.7641,0.4699,9.6536-0.6159,14.3418c-2.1647-4.0322-2.9362-8.7958-2.1551-13.3052
			c-5.6488-1.2074-11.201-2.8668-16.586-4.9569c0.2733,4.9986-0.108,10.0326-1.1312,14.933
			c-2.1987-4.6839-3.0403-9.9955-2.3971-15.1297c-0.0478,0.3818-6.9577-3.5222-7.4153-3.7746
			C29.9349,438.251,31.7216,453.0168,31.8071,466.4665z"/>
	</g>
	<g opacity="0.58">
		<path fill="#7C482E" d="M96.3172,453.238v-32.8389l273.0314,0.7938c0,0,0.8651,10.7415,0,19.712
			c-0.8651,8.9704-3.2153,22.4898-3.2153,22.4898h-28.0236c0,0,2.2272-12.7027,2.2272-21.4362s-4.7572-13.0934-4.7572-13.0934
			l-192.9464,2.1195c-15.0967,0.1658-29.5591,6.0954-40.4272,16.575L96.3172,453.238z"/>
	</g>
	<g opacity="0.6">
		<g>
			<path fill="#FFFFFF" d="M368.6828,361.1442c4.2882,7.0652,6.7013,14.392,8.2023,22.5048c0.6023,3.2555,5.542,2.962,5.2198-0.4547
				c-0.8201-8.6973-4.199-17.0477-9.0258-24.2631C371.3627,356.3654,367.0119,358.3912,368.6828,361.1442L368.6828,361.1442z"/>
		</g>
	</g>
	<g opacity="0.35">
		<g>
			<g>
				<path fill="#F9D6B7" d="M618.6638,259.6548c21.899,4.6656,44.8552,3.0729,66.8347,7.251
					c24.1544,4.5915,31.9586,26.5374,29.9885,48.7634c-0.2148,2.4238,3.3962,3.1205,3.7772,0.6516
					c3.1718-20.5517-3.6952-43.4837-24.4225-51.7458c-10.7081-4.2683-23.3343-4.0949-34.6577-5.134
					c-13.4611-1.2352-27.3416-3.4872-40.8699-3.1529C617.5095,256.3327,616.6028,259.2157,618.6638,259.6548L618.6638,259.6548z"/>
			</g>
		</g>
		<g>
			<g>
				<path fill="#F9D6B7" d="M651.6158,293.2481c1.5054-3.8466,10.4627-5.8567,11.6726-0.9609
					c0.525,2.1243,4.1841,1.3153,3.7845-0.8517c-0.8528-4.6254-5.3469-6.3795-9.658-5.599
					c-3.6967,0.6693-8.5329,2.3132-9.0797,6.5877C648.0894,294.3469,650.9082,295.0563,651.6158,293.2481L651.6158,293.2481z"/>
			</g>
		</g>
		<g>
			<g>
				<path fill="#F9D6B7" d="M644.6704,288.4551c8.8801-9.0053,22.1258-5.3208,26.9354,5.7805
					c1.0007,2.3095,4.4357,1.2436,3.7499-1.2388c-4.1062-14.8627-23.0576-17.7548-32.895-6.9844
					C641.0571,287.5493,643.1617,289.9851,644.6704,288.4551L644.6704,288.4551z"/>
			</g>
		</g>
		<g>
			<g>
				<path fill="#F9D6B7" d="M642.7007,283.2567c6.118-6.0941,15.6077-5.3387,23.3776-3.5793
					c4.2745,0.9679,9.8001,2.2216,12.2833,6.2765c2.3016,3.7584,2.6871,9.0229,2.8849,13.2603
					c0.1157,2.4755,3.934,2.5184,3.8681,0.02c-0.1342-5.0945-0.7809-11.0547-3.55-15.4714
					c-2.5977-4.1429-7.2391-5.7999-11.7387-7.024c-9.6675-2.6301-22.0026-3.8183-29.5662,4.102
					C638.7368,282.4355,641.1293,284.822,642.7007,283.2567L642.7007,283.2567z"/>
			</g>
		</g>
		<g>
			<g>
				<path fill="#F9D6B7" d="M681.5881,281.4597c2.7788,1.5037,5.0355,3.6913,6.2834,6.6446
					c1.1444,2.7084,0.8438,5.166,0.7812,8.0014c-0.0386,1.7517,2.6148,2.6045,3.4136,0.9203
					c3.3725-7.1108-2.13-16.192-8.9902-18.6683C681.2617,277.7027,679.8286,280.5077,681.5881,281.4597L681.5881,281.4597z"/>
			</g>
		</g>
		<g>
			<g>
				<path fill="#F9D6B7" d="M687.1456,279.1048c0.6153,0.7465,1.1613,1.4649,2.1466,1.6841
					c0.6793,0.1512,1.412-0.0978,1.8702-0.6178c0.4846-0.55,0.5521-1.2167,0.3892-1.9029
					c-0.2068-0.8704-1.0447-1.4642-1.7056-2.0005c-0.7632-0.6192-1.9404-0.431-2.5832,0.2448
					C686.5977,277.2117,686.5143,278.3389,687.1456,279.1048L687.1456,279.1048z"/>
			</g>
		</g>
	</g>
	<g opacity="0.58">
		<path fill="#7C482E" d="M643.9586,331.7274c0.1888,2.9178,2.0849,6.2263,5.0073,6.1322
			c1.531-5.1933,2.3475-10.5966,2.4194-16.0104c0.2719,3.1537,0.5438,6.3074,0.8157,9.4612
			c0.1063,1.233,0.2229,2.5026,0.7927,3.6012c1.4988,2.89,5.3391,3.442,8.5942,3.4954c3.8159,0.0625,7.7382-0.0919,11.2533-1.5781
			c3.5151-1.4862,6.5779-4.5627,7.059-8.3486c0.2546-2.0041-0.1885-4.1758,0.7589-5.96c-0.024,4.3209-0.048,8.6417-0.0721,12.9626
			c-0.0035,0.6267,0.0076,1.3011,0.376,1.8081c0.2547,0.3506,0.649,0.5721,1.0468,0.7442
			c3.8116,1.6491,8.4337-0.6432,10.6709-4.1423s2.6188-7.8472,2.6631-12.0001c-0.9988,9.1326-0.9724,18.3769,0.0785,27.5036
			c-20.0135-2.9931-39.5363-1.2436-59.4526-2.3514c-0.4713-3.4487-1.642-11.5549,0.6435-14.6542
			c1.2701-1.7225,3.7397,0.0835,4.4169-0.7651c1.6086-2.0158,1.9561-5.6281,2.8279-8.2054
			C644.2911,326.2032,643.7766,328.9167,643.9586,331.7274z"/>
	</g>
	<g opacity="0.58">
		<path fill="#7C482E" d="M626.7706,252.4686c-4.611,4.546-9.5277,11.4786-5.8436,16.8036
			c0.9114,1.3173,2.2496,2.2826,3.2346,3.5457c5.175,6.6358-1.6625,16.266-0.1918,24.5517c0.2557,1.4411,0.7678,2.8271,1.0247,4.268
			c0.4484,2.5146,0.106,5.092-0.0047,7.6438c-0.3943,9.0947,2.1688,18.0281,4.7075,26.7702
			c0.6566,2.261,2.9641,5.0757,4.7024,3.4878c-0.5847,1.7242,0.4222,3.8241,2.1328,4.4477s3.8327-0.3353,4.4951-2.0312
			c0.4508,3.132,3.4525,5.6864,6.6162,5.6304c3.1638-0.056,6.0732-2.7151,6.4128-5.8611c0.1581,3.9455,5.0316,6.2731,8.8676,5.3369
			c3.836-0.9362,6.735-3.9906,9.4016-6.9028c3.6639,7.3408,16.0178,7.6977,20.0994,0.5807c-0.8641,1.2473,2.9053,0.5819,4.2174-0.18
			c1.3122-0.7619,1.6603-2.4663,1.8778-3.968c0.8929-6.1667,1.7859-12.3334,2.679-18.5001
			c0.0389,5.2631,0.1572,10.8192,2.8924,15.3158c2.7352,4.4967,9.0772,7.2429,13.4421,4.302
			c-2.1083,3.5177-3.5644,7.4249-4.2722,11.4645c-35.4296-4.2401-71.2778-1.9692-106.8875,0.3073
			c-0.6941-2.7494-1.3882-5.4988-2.0823-8.2482c2.5247,2.0852,6.0297,2.9273,9.2263,2.2167
			c3.0468-30.6439,2.6107-61.6327-1.2972-92.1787C617.0094,252.1792,621.9099,252.8282,626.7706,252.4686z"/>
	</g>
	<path opacity="0.15" fill="#F9BF80" d="M635.0984,435.1018c1.7674,0.2949,3.5347,0.5898,5.3021,0.8848
		c-0.0134,5.0403-0.0267,10.0806-0.0402,15.1208c-0.0023,0.8858,0.0891,1.9419,0.8618,2.3749
		c1.1312,0.6339,2.3528-0.6738,2.9376-1.8311c2.2441-4.4413,3.4821-9.3874,3.5945-14.3622c2.808-0.0104,5.6161-0.0208,8.4241-0.0312
		c-0.6108,4.8643-0.7918,9.7825-0.5404,14.6786c0.0434,0.8452,0.1637,1.809,0.8604,2.2896c0.8202,0.5658,2.0253,0.0806,2.575-0.7504
		c0.5497-0.831,0.6206-1.879,0.6747-2.8739c0.2563-4.7118,0.5127-9.4235,0.769-14.1353c3.8766-1.6187,7.7532-3.2374,11.6298-4.8561
		c-1.3452-0.1054-1.8249,1.7308-1.8204,3.0801c0.0162,4.7608,0.0323,9.5216,0.0485,14.2825
		c0.0028,0.8286,0.0719,1.7908,0.7523,2.2637c1.4918,1.0368,2.8864-1.4591,3.0192-3.2709
		c0.416-5.6722,0.8319-11.3445,1.2478-17.0167c3.332-0.0083,6.656-0.979,9.4689-2.765c-1.4967,7.3118-1.1954,14.9848,0.87,22.1568
		c3.3681-6.7048,4.442-14.5364,3.0031-21.9004c1.8447-0.1627,3.6893-0.3254,5.534-0.4881
		c-1.6191,12.6088-2.3322,25.3338-2.1317,38.0446c-1.1493,0.1444-2.2985,0.2889-3.4478,0.4333
		c1.2912-4.7416,1.4274-9.7934,0.3936-14.5977c-0.1481-0.6883-0.3836-1.4549-1.0144-1.7675c-1.4-0.6938-2.4713,1.4082-2.6114,2.9644
		c-0.389,4.3205-0.5075,8.6653-0.3548,13.0006c-3.416-0.0653-6.832-0.1307-10.248-0.196
		c1.4331-5.2278,1.0522-10.9346-1.0629-15.9256c-3.9837,5.0781-2.9665,12.3207-1.7497,18.6591
		c-3.8992-1.7397-8.5752-1.6359-12.3934,0.2751c-0.1128-3.4075-0.2255-6.815-0.3383-10.2225
		c-0.0436-1.3172-0.1128-2.7155-0.8611-3.8004c-0.7483-1.0848-2.4395-1.6235-3.4079-0.7297
		c0.1121,4.6959-0.0471,9.3982-0.4766,14.0757c0.8764-1.1424-0.096-2.9316-1.4581-3.3985
		c-1.3621-0.4669-2.8508-0.0393-4.2257,0.3882c-1.8195,0.5657-3.6391,1.1315-5.4587,1.6972
		c1.337-4.3435,1.4674-9.0517,0.3727-13.4626c-2.1594-1.0427-3.9868,1.9496-4.4458,4.3032
		c-0.6589,3.3787-1.0643,6.8068-1.2115,10.2459c-1.2778,0.0077-2.5428-0.6351-3.2899-1.6717"/>
</g>
</svg>
